<?xml version="1.0" encoding="utf-8"?>
<!-- Generator: Adobe Illustrator 21.1.0, SVG Export Plug-In . SVG Version: 6.00 Build 0)  -->
<svg version="1.1" id="Pattern" xmlns="http://www.w3.org/2000/svg" xmlns:xlink="http://www.w3.org/1999/xlink" x="0px" y="0px"
	 viewBox="0 0 1200 721.5" style="enable-background:new 0 0 1200 721.5;" xml:space="preserve">
<style type="text/css">
	.st0{opacity:0.15;}
	.st1{fill:none;stroke:#9D9D9D;stroke-miterlimit:10;}
</style>
<g class="st0">
	<path class="st1" d="M1018.7,296.6c0-2,1.1-4.2,1.1-4.2s3.7-9.3,3.7-21.1s-1.8-13.6-2.3-13.6s-0.5-0.7-0.3,13.2
		c0.3,13.2-1.9,17.9-7.4,22.2c-5.5-4.3-7.6-8.9-7.4-22.2c0.3-13.9,0.3-13.2-0.3-13.2c-0.5,0-2.3,1.8-2.3,13.6s3.7,21.1,3.7,21.1
		s1.1,2.2,1.1,4.2c0,0.4,0,1,0.1,1.5c-1.8,3-1.7,5.4-1.7,5.4c0,9.5,3.4,15.4,4.6,15.4s1.4-3.8,1.4-5.1c0-0.2,0-0.4-0.1-0.5
		c-0.3-0.8-1.2-1.3-1.2-1.3s0-4.1,0-6.2c0-1.7,0.2-1.2,2.1-1.7c1.9,0.5,2.1,0,2.1,1.7c0,2.1,0,6.2,0,6.2s-0.9,0.5-1.2,1.3
		c-0.1,0.1-0.1,0.3-0.1,0.5c0,1.3,0.3,5.1,1.4,5.1c1.1,0,4.6-5.8,4.6-15.4c0,0,0.2-2.4-1.7-5.4
		C1018.7,297.6,1018.7,297,1018.7,296.6z"/>
	<path class="st1" d="M1089,199.1c0-2,1.1-4.2,1.1-4.2s3.7-9.3,3.7-21.1s-1.8-13.6-2.3-13.6c-0.5,0-0.5-0.7-0.3,13.2
		c0.3,13.2-1.9,17.9-7.4,22.2c-5.5-4.3-7.6-8.9-7.4-22.2c0.3-13.9,0.3-13.2-0.3-13.2c-0.5,0-2.3,1.8-2.3,13.6s3.7,21.1,3.7,21.1
		s1.1,2.2,1.1,4.2c0,0.4,0,1,0.1,1.5c-1.8,3-1.7,5.4-1.7,5.4c0,9.5,3.4,15.4,4.6,15.4s1.4-3.8,1.4-5.1c0-0.2,0-0.4-0.1-0.5
		c-0.3-0.8-1.2-1.3-1.2-1.3s0-4.1,0-6.2c0-1.7,0.2-1.2,2.1-1.7c1.9,0.5,2.1,0,2.1,1.7c0,2.1,0,6.2,0,6.2s-0.9,0.5-1.2,1.3
		c-0.1,0.1-0.1,0.3-0.1,0.5c0,1.3,0.3,5.1,1.4,5.1s4.6-5.8,4.6-15.4c0,0,0.2-2.4-1.7-5.4C1088.9,200.1,1089,199.6,1089,199.1z"/>
	<path class="st1" d="M1051.9,442.9c0-2,1.1-4.2,1.1-4.2s3.7-9.3,3.7-21.1c0-11.8-1.8-13.6-2.3-13.6s-0.5-0.7-0.3,13.2
		c0.3,13.2-1.9,17.9-7.4,22.2c-5.5-4.3-7.6-8.9-7.4-22.2c0.3-13.9,0.3-13.2-0.3-13.2c-0.5,0-2.3,1.8-2.3,13.6
		c0,11.8,3.7,21.1,3.7,21.1s1.1,2.2,1.1,4.2c0,0.4,0,1,0.1,1.5c-1.8,3-1.7,5.4-1.7,5.4c0,9.5,3.4,15.4,4.6,15.4
		c1.1,0,1.4-3.8,1.4-5.1c0-0.2,0-0.4-0.1-0.5c-0.3-0.8-1.2-1.3-1.2-1.3s0-4.1,0-6.2c0-1.7,0.2-1.2,2.1-1.7c1.9,0.5,2.1,0,2.1,1.7
		c0,2.1,0,6.2,0,6.2s-0.9,0.5-1.2,1.3c-0.1,0.1-0.1,0.3-0.1,0.5c0,1.3,0.3,5.1,1.4,5.1s4.6-5.8,4.6-15.4c0,0,0.2-2.4-1.7-5.4
		C1051.9,443.9,1051.9,443.3,1051.9,442.9z"/>
	<path class="st1" d="M1122.2,345.5c0-2,1.1-4.2,1.1-4.2s3.7-9.3,3.7-21.1c0-11.8-1.8-13.6-2.3-13.6s-0.5-0.7-0.3,13.2
		c0.3,13.2-1.9,17.9-7.4,22.2c-5.5-4.3-7.6-8.9-7.4-22.2c0.3-13.9,0.3-13.2-0.3-13.2c-0.5,0-2.3,1.8-2.3,13.6
		c0,11.8,3.7,21.1,3.7,21.1s1.1,2.2,1.1,4.2c0,0.4,0,1,0.1,1.5c-1.8,3-1.7,5.4-1.7,5.4c0,9.5,3.4,15.4,4.6,15.4
		c1.1,0,1.4-3.8,1.4-5.1c0-0.2,0-0.4-0.1-0.5c-0.3-0.8-1.2-1.3-1.2-1.3s0-4.1,0-6.2c0-1.7,0.2-1.2,2.1-1.7c1.9,0.5,2.1,0,2.1,1.7
		c0,2.1,0,6.2,0,6.2s-0.9,0.5-1.2,1.3c-0.1,0.1-0.1,0.3-0.1,0.5c0,1.3,0.3,5.1,1.4,5.1s4.6-5.8,4.6-15.4c0,0,0.2-2.4-1.7-5.4
		C1122.1,346.4,1122.2,345.9,1122.2,345.5z"/>
	<path class="st1" d="M1155.8,193.8l1.6-9.2l3.4-5.6l-0.4-27c0,0-1.8-2.3-6-2.5v0c-0.1,0-0.2,0-0.3,0c-0.1,0-0.2,0-0.3,0v0
		c-4.2,0.2-6,2.5-6,2.5l-0.4,27l3.4,5.6l1.6,9.2c0,0-0.4,22.9-0.4,25.4c0,2.5-1.8,3.4-1.8,5.1s1.8,6,1.8,6h1.8h0.5h1.8
		c0,0,1.8-4.2,1.8-6s-1.8-2.6-1.8-5.1C1156.1,216.7,1155.8,193.8,1155.8,193.8z"/>
	<path class="st1" d="M1186.6,237.8c0-2,1.1-4.2,1.1-4.2s3.7-9.3,3.7-21.1c0-11.8-1.8-13.6-2.3-13.6s-0.5-0.7-0.3,13.2
		c0.3,13.2-1.9,17.9-7.4,22.2c-5.5-4.3-7.6-8.9-7.4-22.2c0.3-13.9,0.3-13.2-0.3-13.2c-0.5,0-2.3,1.8-2.3,13.6
		c0,11.8,3.7,21.1,3.7,21.1s1.1,2.2,1.1,4.2c0,0.4,0,1,0.1,1.5c-1.8,3-1.7,5.4-1.7,5.4c0,9.5,3.4,15.4,4.6,15.4
		c1.1,0,1.4-3.8,1.4-5.1c0-0.2,0-0.4-0.1-0.5c-0.3-0.8-1.2-1.3-1.2-1.3s0-4.1,0-6.2c0-1.7,0.2-1.2,2.1-1.7c1.9,0.5,2.1,0,2.1,1.7
		c0,2.1,0,6.2,0,6.2s-0.9,0.5-1.2,1.3c-0.1,0.1-0.1,0.3-0.1,0.5c0,1.3,0.3,5.1,1.4,5.1s4.6-5.8,4.6-15.4c0,0,0.2-2.4-1.7-5.4
		C1186.5,238.8,1186.6,238.3,1186.6,237.8z"/>
	<path class="st1" d="M1256.8,140.4c0-2,1.1-4.2,1.1-4.2s3.7-9.3,3.7-21.1s-1.8-13.6-2.3-13.6c-0.5,0-0.5-0.7-0.3,13.2
		c0.3,13.2-1.9,17.9-7.4,22.2c-5.5-4.3-7.6-8.9-7.4-22.2c0.3-13.9,0.3-13.2-0.3-13.2s-2.3,1.8-2.3,13.6s3.7,21.1,3.7,21.1
		s1.1,2.2,1.1,4.2c0,0.4,0,1,0.1,1.5c-1.8,3-1.7,5.4-1.7,5.4c0,9.5,3.4,15.4,4.6,15.4c1.1,0,1.4-3.8,1.4-5.1c0-0.2,0-0.4-0.1-0.5
		c-0.3-0.8-1.2-1.3-1.2-1.3s0-4.1,0-6.2c0-1.7,0.2-1.2,2.1-1.7c1.9,0.5,2.1,0,2.1,1.7c0,2.1,0,6.2,0,6.2s-0.9,0.5-1.2,1.3
		c-0.1,0.1-0.1,0.3-0.1,0.5c0,1.3,0.3,5.1,1.4,5.1c1.1,0,4.6-5.8,4.6-15.4c0,0,0.2-2.4-1.7-5.4
		C1256.8,141.4,1256.8,140.8,1256.8,140.4z"/>
	<path class="st1" d="M1158.5,101.9c0-2,1.1-4.2,1.1-4.2s3.7-9.3,3.7-21.1S1161.5,63,1161,63c-0.5,0-0.5-0.7-0.3,13.2
		c0.3,13.2-1.9,17.9-7.4,22.2c-5.5-4.3-7.6-8.9-7.4-22.2c0.3-13.9,0.3-13.2-0.3-13.2s-2.3,1.8-2.3,13.6s3.7,21.1,3.7,21.1
		s1.1,2.2,1.1,4.2c0,0.4,0,1,0.1,1.5c-1.8,3-1.7,5.4-1.7,5.4c0,9.5,3.4,15.4,4.6,15.4s1.4-3.8,1.4-5.1c0-0.2,0-0.4-0.1-0.5
		c-0.3-0.8-1.2-1.3-1.2-1.3s0-4.1,0-6.2c0-1.7,0.2-1.2,2.1-1.7c1.9,0.5,2.1,0,2.1,1.7c0,2.1,0,6.2,0,6.2s-0.9,0.5-1.2,1.3
		c-0.1,0.1-0.1,0.3-0.1,0.5c0,1.3,0.3,5.1,1.4,5.1c1.1,0,4.6-5.8,4.6-15.4c0,0,0.2-2.4-1.7-5.4
		C1158.5,102.8,1158.5,102.3,1158.5,101.9z"/>
	<path class="st1" d="M1219.8,384.1c0-2,1.1-4.2,1.1-4.2s3.7-9.3,3.7-21.1s-1.8-13.6-2.3-13.6c-0.5,0-0.5-0.7-0.3,13.2
		c0.3,13.2-1.9,17.9-7.4,22.2c-5.5-4.3-7.6-8.9-7.4-22.2c0.3-13.9,0.3-13.2-0.3-13.2s-2.3,1.8-2.3,13.6s3.7,21.1,3.7,21.1
		s1.1,2.2,1.1,4.2c0,0.4,0,1,0.1,1.5c-1.8,3-1.7,5.4-1.7,5.4c0,9.5,3.4,15.4,4.6,15.4c1.1,0,1.4-3.8,1.4-5.1c0-0.2,0-0.4-0.1-0.5
		c-0.3-0.8-1.2-1.3-1.2-1.3s0-4.1,0-6.2c0-1.7,0.2-1.2,2.1-1.7c1.9,0.5,2.1,0,2.1,1.7c0,2.1,0,6.2,0,6.2s-0.9,0.5-1.2,1.3
		c-0.1,0.1-0.1,0.3-0.1,0.5c0,1.3,0.3,5.1,1.4,5.1c1.1,0,4.6-5.8,4.6-15.4c0,0,0.2-2.4-1.7-5.4
		C1219.7,385.1,1219.8,384.6,1219.8,384.1z"/>
	<path class="st1" d="M1084.3,592.1c0-2,1.1-4.2,1.1-4.2s3.7-9.3,3.7-21.1c0-11.8-1.8-13.6-2.3-13.6s-0.5-0.7-0.3,13.2
		c0.3,13.2-1.9,17.9-7.4,22.2c-5.5-4.3-7.6-8.9-7.4-22.2c0.3-13.9,0.3-13.2-0.3-13.2c-0.5,0-2.3,1.8-2.3,13.6
		c0,11.8,3.7,21.1,3.7,21.1s1.1,2.2,1.1,4.2c0,0.4,0,1,0.1,1.5c-1.8,3-1.7,5.4-1.7,5.4c0,9.5,3.4,15.4,4.6,15.4
		c1.1,0,1.4-3.8,1.4-5.1c0-0.2,0-0.4-0.1-0.5c-0.3-0.8-1.2-1.3-1.2-1.3s0-4.1,0-6.2c0-1.7,0.2-1.2,2.1-1.7c1.9,0.5,2.1,0,2.1,1.7
		c0,2.1,0,6.2,0,6.2s-0.9,0.5-1.2,1.3c-0.1,0.1-0.1,0.3-0.1,0.5c0,1.3,0.3,5.1,1.4,5.1s4.6-5.8,4.6-15.4c0,0,0.2-2.4-1.7-5.4
		C1084.3,593,1084.3,592.5,1084.3,592.1z"/>
	<path class="st1" d="M1154.6,494.6c0-2,1.1-4.2,1.1-4.2s3.7-9.3,3.7-21.1s-1.8-13.6-2.3-13.6c-0.5,0-0.5-0.7-0.3,13.2
		c0.3,13.2-1.9,17.9-7.4,22.2c-5.5-4.3-7.6-8.9-7.4-22.2c0.3-13.9,0.3-13.2-0.3-13.2c-0.5,0-2.3,1.8-2.3,13.6s3.7,21.1,3.7,21.1
		s1.1,2.2,1.1,4.2c0,0.4,0,1,0.1,1.5c-1.8,3-1.7,5.4-1.7,5.4c0,9.5,3.4,15.4,4.6,15.4c1.1,0,1.4-3.8,1.4-5.1c0-0.2,0-0.4-0.1-0.5
		c-0.3-0.8-1.2-1.3-1.2-1.3s0-4.1,0-6.2c0-1.7,0.2-1.2,2.1-1.7c1.9,0.5,2.1,0,2.1,1.7c0,2.1,0,6.2,0,6.2s-0.9,0.5-1.2,1.3
		c-0.1,0.1-0.1,0.3-0.1,0.5c0,1.3,0.3,5.1,1.4,5.1s4.6-5.8,4.6-15.4c0,0,0.2-2.4-1.7-5.4C1154.5,495.6,1154.6,495.1,1154.6,494.6z"
		/>
	<path class="st1" d="M1252.2,533.3c0-2,1.1-4.2,1.1-4.2s3.7-9.3,3.7-21.1s-1.8-13.6-2.3-13.6c-0.5,0-0.5-0.7-0.3,13.2
		c0.3,13.2-1.9,17.9-7.4,22.2c-5.5-4.3-7.6-8.9-7.4-22.2c0.3-13.9,0.3-13.2-0.3-13.2s-2.3,1.8-2.3,13.6s3.7,21.1,3.7,21.1
		s1.1,2.2,1.1,4.2c0,0.4,0,1,0.1,1.5c-1.8,3-1.7,5.4-1.7,5.4c0,9.5,3.4,15.4,4.6,15.4s1.4-3.8,1.4-5.1c0-0.2,0-0.4-0.1-0.5
		c-0.3-0.8-1.2-1.3-1.2-1.3s0-4.1,0-6.2c0-1.7,0.2-1.2,2.1-1.7c1.9,0.5,2.1,0,2.1,1.7c0,2.1,0,6.2,0,6.2s-0.9,0.5-1.2,1.3
		c-0.1,0.1-0.1,0.3-0.1,0.5c0,1.3,0.3,5.1,1.4,5.1c1.1,0,4.6-5.8,4.6-15.4c0,0,0.2-2.4-1.7-5.4
		C1252.1,534.3,1252.2,533.7,1252.2,533.3z"/>
	<path class="st1" d="M982.6,248.8l1.6-9.2l3.4-5.6l-0.4-27c0,0-1.8-2.3-6-2.5v0c-0.1,0-0.2,0-0.3,0c-0.1,0-0.2,0-0.3,0v0
		c-4.2,0.2-6,2.5-6,2.5l-0.4,27l3.4,5.6l1.6,9.2c0,0-0.4,22.9-0.4,25.4c0,2.5-1.8,3.4-1.8,5.1s1.8,6,1.8,6h1.8h0.5h1.8
		c0,0,1.8-4.2,1.8-6s-1.8-2.6-1.8-5.1C983,271.8,982.6,248.8,982.6,248.8z"/>
	<path class="st1" d="M1015.8,395.2l1.6-9.2l3.4-5.6l-0.4-27c0,0-1.8-2.3-6-2.5v0c-0.1,0-0.2,0-0.3,0c-0.1,0-0.2,0-0.3,0v0
		c-4.2,0.2-6,2.5-6,2.5l-0.4,27l3.4,5.6l1.6,9.2c0,0-0.4,22.9-0.4,25.4c0,2.5-1.8,3.4-1.8,5.1s1.8,6,1.8,6h1.8h0.5h1.8
		c0,0,1.8-4.2,1.8-6s-1.8-2.6-1.8-5.1C1016.2,418.1,1015.8,395.2,1015.8,395.2z"/>
	<path class="st1" d="M1052.9,151.4l1.6-9.2l3.4-5.6l-0.4-27c0,0-1.8-2.3-6-2.5v0c-0.1,0-0.2,0-0.3,0c-0.1,0-0.2,0-0.3,0v0
		c-4.2,0.2-6,2.5-6,2.5l-0.4,27l3.4,5.6l1.6,9.2c0,0-0.4,22.9-0.4,25.4c0,2.5-1.8,3.4-1.8,5.1s1.8,6,1.8,6h1.8h0.5h1.8
		c0,0,1.8-4.2,1.8-6s-1.8-2.6-1.8-5.1C1053.2,174.4,1052.9,151.4,1052.9,151.4z"/>
	<path class="st1" d="M1086.1,297.7l1.6-9.2l3.4-5.6l-0.4-27c0,0-1.8-2.3-6-2.5v0c-0.1,0-0.2,0-0.3,0c-0.1,0-0.2,0-0.3,0v0
		c-4.2,0.2-6,2.5-6,2.5l-0.4,27l3.4,5.6l1.6,9.2c0,0-0.4,22.9-0.4,25.4c0,2.5-1.8,3.4-1.8,5.1s1.8,6,1.8,6h1.8h0.5h1.8
		c0,0,1.8-4.2,1.8-6s-1.8-2.6-1.8-5.1C1086.4,320.7,1086.1,297.7,1086.1,297.7z"/>
	<path class="st1" d="M1220.7,92.6l1.6-9.2l3.4-5.6l-0.4-27c0,0-1.8-2.3-6-2.5v0c-0.1,0-0.2,0-0.3,0c-0.1,0-0.2,0-0.3,0v0
		c-4.2,0.2-6,2.5-6,2.5l-0.4,27l3.4,5.6l1.6,9.2c0,0-0.4,22.9-0.4,25.4c0,2.5-1.8,3.4-1.8,5.1c0,1.8,1.8,6,1.8,6h1.8h0.5h1.8
		c0,0,1.8-4.2,1.8-6c0-1.8-1.8-2.6-1.8-5.1C1221.1,115.6,1220.7,92.6,1220.7,92.6z"/>
	<path class="st1" d="M1183.7,336.4l1.6-9.2l3.4-5.6l-0.4-27c0,0-1.8-2.3-6-2.5v0c-0.1,0-0.2,0-0.3,0c-0.1,0-0.2,0-0.3,0v0
		c-4.2,0.2-6,2.5-6,2.5l-0.4,27l3.4,5.6l1.6,9.2c0,0-0.4,22.9-0.4,25.4c0,2.5-1.8,3.4-1.8,5.1s1.8,6,1.8,6h1.8h0.5h1.8
		c0,0,1.8-4.2,1.8-6s-1.8-2.6-1.8-5.1C1184,359.3,1183.7,336.4,1183.7,336.4z"/>
	<path class="st1" d="M1253.9,238.9l1.6-9.2l3.4-5.6l-0.4-27c0,0-1.8-2.3-6-2.5v0c-0.1,0-0.2,0-0.3,0c-0.1,0-0.2,0-0.3,0v0
		c-4.2,0.2-6,2.5-6,2.5l-0.4,27l3.4,5.6l1.6,9.2c0,0-0.4,22.9-0.4,25.4c0,2.5-1.8,3.4-1.8,5.1c0,1.8,1.8,6,1.8,6h1.8h0.5h1.8
		c0,0,1.8-4.2,1.8-6c0-1.8-1.8-2.6-1.8-5.1C1254.3,261.9,1253.9,238.9,1253.9,238.9z"/>
	<path class="st1" d="M1048.2,544.3l1.6-9.2l3.4-5.6l-0.4-27c0,0-1.8-2.3-6-2.5v0c-0.1,0-0.2,0-0.3,0c-0.1,0-0.2,0-0.3,0v0
		c-4.2,0.2-6,2.5-6,2.5l-0.4,27l3.4,5.6l1.6,9.2c0,0-0.4,22.9-0.4,25.4c0,2.5-1.8,3.4-1.8,5.1c0,1.8,1.8,6,1.8,6h1.8h0.5h1.8
		c0,0,1.8-4.2,1.8-6c0-1.8-1.8-2.6-1.8-5.1C1048.6,567.3,1048.2,544.3,1048.2,544.3z"/>
	<path class="st1" d="M1118.5,446.9l1.6-9.2l3.4-5.6l-0.4-27c0,0-1.8-2.3-6-2.5v0c-0.1,0-0.2,0-0.3,0c-0.1,0-0.2,0-0.3,0v0
		c-4.2,0.2-6,2.5-6,2.5l-0.4,27l3.4,5.6l1.6,9.2c0,0-0.4,22.9-0.4,25.4c0,2.5-1.8,3.4-1.8,5.1s1.8,6,1.8,6h1.8h0.5h1.8
		c0,0,1.8-4.2,1.8-6s-1.8-2.6-1.8-5.1C1118.8,469.8,1118.5,446.9,1118.5,446.9z"/>
	<path class="st1" d="M1151.6,593.2l1.6-9.2l3.4-5.6l-0.4-27c0,0-1.8-2.3-6-2.5v0c-0.1,0-0.2,0-0.3,0c-0.1,0-0.2,0-0.3,0v0
		c-4.2,0.2-6,2.5-6,2.5l-0.4,27l3.4,5.6l1.6,9.2c0,0-0.4,22.9-0.4,25.4c0,2.5-1.8,3.4-1.8,5.1c0,1.8,1.8,6,1.8,6h1.8h0.5h1.8
		c0,0,1.8-4.2,1.8-6c0-1.8-1.8-2.6-1.8-5.1C1152,616.2,1151.6,593.2,1151.6,593.2z"/>
	<path class="st1" d="M1216.1,485.6l1.6-9.2l3.4-5.6l-0.4-27c0,0-1.8-2.3-6-2.5v0c-0.1,0-0.2,0-0.3,0c-0.1,0-0.2,0-0.3,0v0
		c-4.2,0.2-6,2.5-6,2.5l-0.4,27l3.4,5.6l1.6,9.2c0,0-0.4,22.9-0.4,25.4c0,2.5-1.8,3.4-1.8,5.1c0,1.8,1.8,6,1.8,6h1.8h0.5h1.8
		c0,0,1.8-4.2,1.8-6c0-1.8-1.8-2.6-1.8-5.1C1216.4,508.5,1216.1,485.6,1216.1,485.6z"/>
	<path class="st1" d="M1249.3,631.9l1.6-9.2l3.4-5.6l-0.4-27c0,0-1.8-2.3-6-2.5v0c-0.1,0-0.2,0-0.3,0c-0.1,0-0.2,0-0.3,0v0
		c-4.2,0.2-6,2.5-6,2.5l-0.4,27l3.4,5.6l1.6,9.2c0,0-0.4,22.9-0.4,25.4s-1.8,3.4-1.8,5.1c0,1.8,1.8,6,1.8,6h1.8h0.5h1.8
		c0,0,1.8-4.2,1.8-6c0-1.8-1.8-2.6-1.8-5.1S1249.3,631.9,1249.3,631.9z"/>
	<path class="st1" d="M1028.6,160.7c-0.2-1.9-1.9-3-3.8-3.4c-10-2.4-21.4,0-21.4,0c-2.1,0.4-3.8,1.7-3.8,3.8l0,15.7l0,0
		c0.2,1.5,1.4,2.7,2.8,3h0.4c0.2,0.2,0.4,0.4,0.4,0.7l3.4,61.5c0,0.3,0.3,0.5,0.6,0.5l3.8,0.1h0l7.4,0.1l0.1-0.1l-0.2,0
		c0.2-0.1,0.4-0.2,0.5-0.3l1.2-1.2c0.2-0.2,0.2-0.5,0-0.7l-1-1c-0.2-0.2-0.2-0.5,0-0.7l1-1c0.2-0.2,0.2-0.5,0-0.7l-1-1
		c-0.2-0.2-0.2-0.5,0-0.7l1-1c0.2-0.2,0.2-0.5,0-0.7l-1-1c-0.2-0.2-0.2-0.5,0-0.7l1-1c0.2-0.2,0.2-0.5,0-0.7l-1-1
		c-0.2-0.2-0.2-0.5,0-0.7l1-1c0.2-0.2,0.2-0.5,0-0.7l-1-1c-0.2-0.2-0.2-0.5,0-0.7l1-1c0.2-0.2,0.2-0.5,0-0.7l-1-1
		c-0.2-0.2-0.2-0.5,0-0.7l1-1c0.2-0.2,0.2-0.5,0-0.7l-1-1c-0.2-0.2-0.2-0.5,0-0.7l1-1c0.2-0.2,0.2-0.5,0-0.7l-1-1
		c-0.2-0.2-0.2-0.5,0-0.7l1-1c0.2-0.2,0.2-0.5,0-0.7l-1-1c-0.2-0.2-0.2-0.5,0-0.7l1-1c0.2-0.2,0.2-0.5,0-0.7l-1-1
		c-0.2-0.2-0.2-0.5,0-0.7l1-1c0.2-0.2,0.2-0.5,0-0.7l-1-1c-0.2-0.2-0.2-0.5,0-0.7l1-1c0.2-0.2,0.2-0.5,0-0.7l-1-1
		c-0.2-0.2-0.2-0.5,0-0.7l1-1c0.2-0.2,0.2-0.5,0-0.7l-1-1c-0.2-0.2-0.2-0.5,0-0.7l1-1c0.2-0.2,0.2-0.5,0-0.7l-1-1
		c-0.2-0.2-0.2-0.5,0-0.7l1-1c0.2-0.2,0.2-0.5,0-0.7l-1-1c-0.2-0.2-0.2-0.5,0-0.7l1-1c0.2-0.2,0.2-0.5,0-0.7l-1-1
		c-0.2-0.2-0.2-0.5,0-0.7l1-1c0.2-0.2,0.2-0.5,0-0.7l-1-1c-0.2-0.2-0.2-0.5,0-0.7l1-1c0.2-0.2,0.2-0.5,0-0.7l-0.7-0.7
		c-0.2-0.2-0.3-0.4-0.3-0.4c0,0,0,0,0.1,0c0.3,0,0.5,0,0.7-0.1h0.2c1.4-0.4,2.3-1.6,2.8-3c0.5-1.3,3.7-9.4,4.1-15.3
		C1028.6,161.3,1028.6,160.8,1028.6,160.7z M1022.3,166.9c0,1.5-1.2,2.6-2.6,2.6h-12c-1.5,0-2.6-1.2-2.6-2.6v-0.3
		c0-1.5,1.2-2.6,2.6-2.6h12c1.5,0,2.6,1.2,2.6,2.6V166.9z"/>
	<path class="st1" d="M1098.8,63.3c-0.2-1.9-1.9-3-3.8-3.4c-10-2.4-21.4,0-21.4,0c-2.1,0.4-3.8,1.7-3.8,3.8l0,15.7l0,0
		c0.2,1.5,1.4,2.7,2.8,3h0.4c0.2,0.2,0.4,0.4,0.4,0.7l3.4,61.5c0,0.3,0.3,0.5,0.6,0.5l3.8,0.1h0l7.4,0.1l0.1-0.1l-0.2,0
		c0.2-0.1,0.4-0.2,0.5-0.3l1.2-1.2c0.2-0.2,0.2-0.5,0-0.7l-1-1c-0.2-0.2-0.2-0.5,0-0.7l1-1c0.2-0.2,0.2-0.5,0-0.7l-1-1
		c-0.2-0.2-0.2-0.5,0-0.7l1-1c0.2-0.2,0.2-0.5,0-0.7l-1-1c-0.2-0.2-0.2-0.5,0-0.7l1-1c0.2-0.2,0.2-0.5,0-0.7l-1-1
		c-0.2-0.2-0.2-0.5,0-0.7l1-1c0.2-0.2,0.2-0.5,0-0.7l-1-1c-0.2-0.2-0.2-0.5,0-0.7l1-1c0.2-0.2,0.2-0.5,0-0.7l-1-1
		c-0.2-0.2-0.2-0.5,0-0.7l1-1c0.2-0.2,0.2-0.5,0-0.7l-1-1c-0.2-0.2-0.2-0.5,0-0.7l1-1c0.2-0.2,0.2-0.5,0-0.7l-1-1
		c-0.2-0.2-0.2-0.5,0-0.7l1-1c0.2-0.2,0.2-0.5,0-0.7l-1-1c-0.2-0.2-0.2-0.5,0-0.7l1-1c0.2-0.2,0.2-0.5,0-0.7l-1-1
		c-0.2-0.2-0.2-0.5,0-0.7l1-1c0.2-0.2,0.2-0.5,0-0.7l-1-1c-0.2-0.2-0.2-0.5,0-0.7l1-1c0.2-0.2,0.2-0.5,0-0.7l-1-1
		c-0.2-0.2-0.2-0.5,0-0.7l1-1c0.2-0.2,0.2-0.5,0-0.7l-1-1c-0.2-0.2-0.2-0.5,0-0.7l1-1c0.2-0.2,0.2-0.5,0-0.7l-1-1
		c-0.2-0.2-0.2-0.5,0-0.7l1-1c0.2-0.2,0.2-0.5,0-0.7l-1-1c-0.2-0.2-0.2-0.5,0-0.7l1-1c0.2-0.2,0.2-0.5,0-0.7l-1-1
		c-0.2-0.2-0.2-0.5,0-0.7l1-1c0.2-0.2,0.2-0.5,0-0.7l-1-1c-0.2-0.2-0.2-0.5,0-0.7l1-1c0.2-0.2,0.2-0.5,0-0.7l-0.7-0.7
		c-0.2-0.2-0.3-0.4-0.3-0.4c0,0,0,0,0.1,0c0.3,0,0.5,0,0.7-0.1h0.2c1.4-0.4,2.3-1.6,2.8-3c0.5-1.3,3.7-9.4,4.1-15.3
		C1098.8,63.9,1098.8,63.4,1098.8,63.3z M1092.6,69.5c0,1.5-1.2,2.6-2.6,2.6h-12c-1.5,0-2.6-1.2-2.6-2.6v-0.3c0-1.5,1.2-2.6,2.6-2.6
		h12c1.5,0,2.6,1.2,2.6,2.6V69.5z"/>
	<path class="st1" d="M1061.8,307c-0.2-1.9-1.9-3-3.8-3.4c-10-2.4-21.4,0-21.4,0c-2.1,0.4-3.8,1.7-3.8,3.8l0,15.7l0,0
		c0.2,1.5,1.4,2.7,2.8,3h0.4c0.2,0.2,0.4,0.4,0.4,0.7l3.4,61.5c0,0.3,0.3,0.5,0.6,0.5l3.8,0.1h0l7.4,0.1l0.1-0.1l-0.2,0
		c0.2-0.1,0.4-0.2,0.5-0.3l1.2-1.2c0.2-0.2,0.2-0.5,0-0.7l-1-1c-0.2-0.2-0.2-0.5,0-0.7l1-1c0.2-0.2,0.2-0.5,0-0.7l-1-1
		c-0.2-0.2-0.2-0.5,0-0.7l1-1c0.2-0.2,0.2-0.5,0-0.7l-1-1c-0.2-0.2-0.2-0.5,0-0.7l1-1c0.2-0.2,0.2-0.5,0-0.7l-1-1
		c-0.2-0.2-0.2-0.5,0-0.7l1-1c0.2-0.2,0.2-0.5,0-0.7l-1-1c-0.2-0.2-0.2-0.5,0-0.7l1-1c0.2-0.2,0.2-0.5,0-0.7l-1-1
		c-0.2-0.2-0.2-0.5,0-0.7l1-1c0.2-0.2,0.2-0.5,0-0.7l-1-1c-0.2-0.2-0.2-0.5,0-0.7l1-1c0.2-0.2,0.2-0.5,0-0.7l-1-1
		c-0.2-0.2-0.2-0.5,0-0.7l1-1c0.2-0.2,0.2-0.5,0-0.7l-1-1c-0.2-0.2-0.2-0.5,0-0.7l1-1c0.2-0.2,0.2-0.5,0-0.7l-1-1
		c-0.2-0.2-0.2-0.5,0-0.7l1-1c0.2-0.2,0.2-0.5,0-0.7l-1-1c-0.2-0.2-0.2-0.5,0-0.7l1-1c0.2-0.2,0.2-0.5,0-0.7l-1-1
		c-0.2-0.2-0.2-0.5,0-0.7l1-1c0.2-0.2,0.2-0.5,0-0.7l-1-1c-0.2-0.2-0.2-0.5,0-0.7l1-1c0.2-0.2,0.2-0.5,0-0.7l-1-1
		c-0.2-0.2-0.2-0.5,0-0.7l1-1c0.2-0.2,0.2-0.5,0-0.7l-1-1c-0.2-0.2-0.2-0.5,0-0.7l1-1c0.2-0.2,0.2-0.5,0-0.7l-1-1
		c-0.2-0.2-0.2-0.5,0-0.7l1-1c0.2-0.2,0.2-0.5,0-0.7l-1-1c-0.2-0.2-0.2-0.5,0-0.7l1-1c0.2-0.2,0.2-0.5,0-0.7l-0.7-0.7
		c-0.2-0.2-0.3-0.4-0.3-0.4c0,0,0,0,0.1,0c0.3,0,0.5,0,0.7-0.1h0.2c1.4-0.4,2.3-1.6,2.8-3c0.5-1.3,3.7-9.4,4.1-15.3
		C1061.8,307.6,1061.8,307.1,1061.8,307z M1055.5,313.2c0,1.5-1.2,2.6-2.6,2.6h-12c-1.5,0-2.6-1.2-2.6-2.6v-0.3
		c0-1.5,1.2-2.6,2.6-2.6h12c1.5,0,2.6,1.2,2.6,2.6V313.2z"/>
	<path class="st1" d="M1132,209.6c-0.2-1.9-1.9-3-3.8-3.4c-10-2.4-21.4,0-21.4,0c-2.1,0.4-3.8,1.7-3.8,3.8l0,15.7l0,0
		c0.2,1.5,1.4,2.7,2.8,3h0.4c0.2,0.2,0.4,0.4,0.4,0.7l3.4,61.5c0,0.3,0.3,0.5,0.6,0.5l3.8,0.1h0l7.4,0.1l0.1-0.1l-0.2,0
		c0.2-0.1,0.4-0.2,0.5-0.3l1.2-1.2c0.2-0.2,0.2-0.5,0-0.7l-1-1c-0.2-0.2-0.2-0.5,0-0.7l1-1c0.2-0.2,0.2-0.5,0-0.7l-1-1
		c-0.2-0.2-0.2-0.5,0-0.7l1-1c0.2-0.2,0.2-0.5,0-0.7l-1-1c-0.2-0.2-0.2-0.5,0-0.7l1-1c0.2-0.2,0.2-0.5,0-0.7l-1-1
		c-0.2-0.2-0.2-0.5,0-0.7l1-1c0.2-0.2,0.2-0.5,0-0.7l-1-1c-0.2-0.2-0.2-0.5,0-0.7l1-1c0.2-0.2,0.2-0.5,0-0.7l-1-1
		c-0.2-0.2-0.2-0.5,0-0.7l1-1c0.2-0.2,0.2-0.5,0-0.7l-1-1c-0.2-0.2-0.2-0.5,0-0.7l1-1c0.2-0.2,0.2-0.5,0-0.7l-1-1
		c-0.2-0.2-0.2-0.5,0-0.7l1-1c0.2-0.2,0.2-0.5,0-0.7l-1-1c-0.2-0.2-0.2-0.5,0-0.7l1-1c0.2-0.2,0.2-0.5,0-0.7l-1-1
		c-0.2-0.2-0.2-0.5,0-0.7l1-1c0.2-0.2,0.2-0.5,0-0.7l-1-1c-0.2-0.2-0.2-0.5,0-0.7l1-1c0.2-0.2,0.2-0.5,0-0.7l-1-1
		c-0.2-0.2-0.2-0.5,0-0.7l1-1c0.2-0.2,0.2-0.5,0-0.7l-1-1c-0.2-0.2-0.2-0.5,0-0.7l1-1c0.2-0.2,0.2-0.5,0-0.7l-1-1
		c-0.2-0.2-0.2-0.5,0-0.7l1-1c0.2-0.2,0.2-0.5,0-0.7l-1-1c-0.2-0.2-0.2-0.5,0-0.7l1-1c0.2-0.2,0.2-0.5,0-0.7l-1-1
		c-0.2-0.2-0.2-0.5,0-0.7l1-1c0.2-0.2,0.2-0.5,0-0.7l-1-1c-0.2-0.2-0.2-0.5,0-0.7l1-1c0.2-0.2,0.2-0.5,0-0.7l-0.7-0.7
		c-0.2-0.2-0.3-0.4-0.3-0.4c0,0,0,0,0.1,0c0.3,0,0.5,0,0.7-0.1h0.2c1.4-0.4,2.3-1.6,2.8-3c0.5-1.3,3.7-9.4,4.1-15.3
		C1132,210.2,1132,209.7,1132,209.6z M1125.8,215.8c0,1.5-1.2,2.6-2.6,2.6h-12c-1.5,0-2.6-1.2-2.6-2.6v-0.3c0-1.5,1.2-2.6,2.6-2.6
		h12c1.5,0,2.6,1.2,2.6,2.6V215.8z"/>
	<path class="st1" d="M1196.4,101.9c-0.2-1.9-1.9-3-3.8-3.4c-10-2.4-21.4,0-21.4,0c-2.1,0.4-3.8,1.7-3.8,3.8l0,15.7l0,0
		c0.2,1.5,1.4,2.7,2.8,3h0.4c0.2,0.2,0.4,0.4,0.4,0.7l3.4,61.5c0,0.3,0.3,0.5,0.6,0.5l3.8,0.1h0l7.4,0.1l0.1-0.1l-0.2,0
		c0.2-0.1,0.4-0.2,0.5-0.3l1.2-1.2c0.2-0.2,0.2-0.5,0-0.7l-1-1c-0.2-0.2-0.2-0.5,0-0.7l1-1c0.2-0.2,0.2-0.5,0-0.7l-1-1
		c-0.2-0.2-0.2-0.5,0-0.7l1-1c0.2-0.2,0.2-0.5,0-0.7l-1-1c-0.2-0.2-0.2-0.5,0-0.7l1-1c0.2-0.2,0.2-0.5,0-0.7l-1-1
		c-0.2-0.2-0.2-0.5,0-0.7l1-1c0.2-0.2,0.2-0.5,0-0.7l-1-1c-0.2-0.2-0.2-0.5,0-0.7l1-1c0.2-0.2,0.2-0.5,0-0.7l-1-1
		c-0.2-0.2-0.2-0.5,0-0.7l1-1c0.2-0.2,0.2-0.5,0-0.7l-1-1c-0.2-0.2-0.2-0.5,0-0.7l1-1c0.2-0.2,0.2-0.5,0-0.7l-1-1
		c-0.2-0.2-0.2-0.5,0-0.7l1-1c0.2-0.2,0.2-0.5,0-0.7l-1-1c-0.2-0.2-0.2-0.5,0-0.7l1-1c0.2-0.2,0.2-0.5,0-0.7l-1-1
		c-0.2-0.2-0.2-0.5,0-0.7l1-1c0.2-0.2,0.2-0.5,0-0.7l-1-1c-0.2-0.2-0.2-0.5,0-0.7l1-1c0.2-0.2,0.2-0.5,0-0.7l-1-1
		c-0.2-0.2-0.2-0.5,0-0.7l1-1c0.2-0.2,0.2-0.5,0-0.7l-1-1c-0.2-0.2-0.2-0.5,0-0.7l1-1c0.2-0.2,0.2-0.5,0-0.7l-1-1
		c-0.2-0.2-0.2-0.5,0-0.7l1-1c0.2-0.2,0.2-0.5,0-0.7l-1-1c-0.2-0.2-0.2-0.5,0-0.7l1-1c0.2-0.2,0.2-0.5,0-0.7l-1-1
		c-0.2-0.2-0.2-0.5,0-0.7l1-1c0.2-0.2,0.2-0.5,0-0.7l-1-1c-0.2-0.2-0.2-0.5,0-0.7l1-1c0.2-0.2,0.2-0.5,0-0.7l-0.7-0.7
		c-0.2-0.2-0.3-0.4-0.3-0.4c0,0,0,0,0.1,0c0.3,0,0.5,0,0.7-0.1h0.2c1.4-0.4,2.3-1.6,2.8-3c0.5-1.3,3.7-9.4,4.1-15.3
		C1196.4,102.5,1196.4,102,1196.4,101.9z M1190.2,108.1c0,1.5-1.2,2.6-2.6,2.6h-12c-1.5,0-2.6-1.2-2.6-2.6v-0.3
		c0-1.5,1.2-2.6,2.6-2.6h12c1.5,0,2.6,1.2,2.6,2.6V108.1z"/>
	<path class="st1" d="M1266.7,4.5c-0.2-1.9-1.9-3-3.8-3.4c-10-2.4-21.4,0-21.4,0c-2.1,0.4-3.8,1.7-3.8,3.8l0,15.7l0,0
		c0.2,1.5,1.4,2.7,2.8,3h0.4c0.2,0.2,0.4,0.4,0.4,0.7l3.4,61.5c0,0.3,0.3,0.5,0.6,0.5l3.8,0.1h0l7.4,0.1l0.1-0.1l-0.2,0
		c0.2-0.1,0.4-0.2,0.5-0.3l1.2-1.2c0.2-0.2,0.2-0.5,0-0.7l-1-1c-0.2-0.2-0.2-0.5,0-0.7l1-1c0.2-0.2,0.2-0.5,0-0.7l-1-1
		c-0.2-0.2-0.2-0.5,0-0.7l1-1c0.2-0.2,0.2-0.5,0-0.7l-1-1c-0.2-0.2-0.2-0.5,0-0.7l1-1c0.2-0.2,0.2-0.5,0-0.7l-1-1
		c-0.2-0.2-0.2-0.5,0-0.7l1-1c0.2-0.2,0.2-0.5,0-0.7l-1-1c-0.2-0.2-0.2-0.5,0-0.7l1-1c0.2-0.2,0.2-0.5,0-0.7l-1-1
		c-0.2-0.2-0.2-0.5,0-0.7l1-1c0.2-0.2,0.2-0.5,0-0.7l-1-1c-0.2-0.2-0.2-0.5,0-0.7l1-1c0.2-0.2,0.2-0.5,0-0.7l-1-1
		c-0.2-0.2-0.2-0.5,0-0.7l1-1c0.2-0.2,0.2-0.5,0-0.7l-1-1c-0.2-0.2-0.2-0.5,0-0.7l1-1c0.2-0.2,0.2-0.5,0-0.7l-1-1
		c-0.2-0.2-0.2-0.5,0-0.7l1-1c0.2-0.2,0.2-0.5,0-0.7l-1-1c-0.2-0.2-0.2-0.5,0-0.7l1-1c0.2-0.2,0.2-0.5,0-0.7l-1-1
		c-0.2-0.2-0.2-0.5,0-0.7l1-1c0.2-0.2,0.2-0.5,0-0.7l-1-1c-0.2-0.2-0.2-0.5,0-0.7l1-1c0.2-0.2,0.2-0.5,0-0.7l-1-1
		c-0.2-0.2-0.2-0.5,0-0.7l1-1c0.2-0.2,0.2-0.5,0-0.7l-1-1c-0.2-0.2-0.2-0.5,0-0.7l1-1c0.2-0.2,0.2-0.5,0-0.7l-1-1
		c-0.2-0.2-0.2-0.5,0-0.7l1-1c0.2-0.2,0.2-0.5,0-0.7l-1-1c-0.2-0.2-0.2-0.5,0-0.7l1-1c0.2-0.2,0.2-0.5,0-0.7l-0.7-0.7
		c-0.2-0.2-0.3-0.4-0.3-0.4c0,0,0,0,0.1,0c0.3,0,0.5,0,0.7-0.1h0.2c1.4-0.4,2.3-1.6,2.8-3c0.5-1.3,3.7-9.4,4.1-15.3
		C1266.7,5.1,1266.7,4.6,1266.7,4.5z M1260.4,10.7c0,1.5-1.2,2.6-2.6,2.6h-12c-1.5,0-2.6-1.2-2.6-2.6v-0.3c0-1.5,1.2-2.6,2.6-2.6h12
		c1.5,0,2.6,1.2,2.6,2.6V10.7z"/>
	<path class="st1" d="M1229.6,248.2c-0.2-1.9-1.9-3-3.8-3.4c-10-2.4-21.4,0-21.4,0c-2.1,0.4-3.8,1.7-3.8,3.8l0,15.7l0,0
		c0.2,1.5,1.4,2.7,2.8,3h0.4c0.2,0.2,0.4,0.4,0.4,0.7l3.4,61.5c0,0.3,0.3,0.5,0.6,0.5l3.8,0.1h0l7.4,0.1l0.1-0.1l-0.2,0
		c0.2-0.1,0.4-0.2,0.5-0.3l1.2-1.2c0.2-0.2,0.2-0.5,0-0.7l-1-1c-0.2-0.2-0.2-0.5,0-0.7l1-1c0.2-0.2,0.2-0.5,0-0.7l-1-1
		c-0.2-0.2-0.2-0.5,0-0.7l1-1c0.2-0.2,0.2-0.5,0-0.7l-1-1c-0.2-0.2-0.2-0.5,0-0.7l1-1c0.2-0.2,0.2-0.5,0-0.7l-1-1
		c-0.2-0.2-0.2-0.5,0-0.7l1-1c0.2-0.2,0.2-0.5,0-0.7l-1-1c-0.2-0.2-0.2-0.5,0-0.7l1-1c0.2-0.2,0.2-0.5,0-0.7l-1-1
		c-0.2-0.2-0.2-0.5,0-0.7l1-1c0.2-0.2,0.2-0.5,0-0.7l-1-1c-0.2-0.2-0.2-0.5,0-0.7l1-1c0.2-0.2,0.2-0.5,0-0.7l-1-1
		c-0.2-0.2-0.2-0.5,0-0.7l1-1c0.2-0.2,0.2-0.5,0-0.7l-1-1c-0.2-0.2-0.2-0.5,0-0.7l1-1c0.2-0.2,0.2-0.5,0-0.7l-1-1
		c-0.2-0.2-0.2-0.5,0-0.7l1-1c0.2-0.2,0.2-0.5,0-0.7l-1-1c-0.2-0.2-0.2-0.5,0-0.7l1-1c0.2-0.2,0.2-0.5,0-0.7l-1-1
		c-0.2-0.2-0.2-0.5,0-0.7l1-1c0.2-0.2,0.2-0.5,0-0.7l-1-1c-0.2-0.2-0.2-0.5,0-0.7l1-1c0.2-0.2,0.2-0.5,0-0.7l-1-1
		c-0.2-0.2-0.2-0.5,0-0.7l1-1c0.2-0.2,0.2-0.5,0-0.7l-1-1c-0.2-0.2-0.2-0.5,0-0.7l1-1c0.2-0.2,0.2-0.5,0-0.7l-1-1
		c-0.2-0.2-0.2-0.5,0-0.7l1-1c0.2-0.2,0.2-0.5,0-0.7l-1-1c-0.2-0.2-0.2-0.5,0-0.7l1-1c0.2-0.2,0.2-0.5,0-0.7l-0.7-0.7
		c-0.2-0.2-0.3-0.4-0.3-0.4c0,0,0,0,0.1,0c0.3,0,0.5,0,0.7-0.1h0.2c1.4-0.4,2.3-1.6,2.8-3c0.5-1.3,3.7-9.4,4.1-15.3
		C1229.6,248.8,1229.6,248.3,1229.6,248.2z M1223.4,254.4c0,1.5-1.2,2.6-2.6,2.6h-12c-1.5,0-2.6-1.2-2.6-2.6v-0.3
		c0-1.5,1.2-2.6,2.6-2.6h12c1.5,0,2.6,1.2,2.6,2.6V254.4z"/>
	<path class="st1" d="M1094.2,456.2c-0.2-1.9-1.9-3-3.8-3.4c-10-2.4-21.4,0-21.4,0c-2.1,0.4-3.8,1.7-3.8,3.8l0,15.7l0,0
		c0.2,1.5,1.4,2.7,2.8,3h0.4c0.2,0.2,0.4,0.4,0.4,0.7l3.4,61.5c0,0.3,0.3,0.5,0.6,0.5l3.8,0.1h0l7.4,0.1l0.1-0.1l-0.2,0
		c0.2-0.1,0.4-0.2,0.5-0.3l1.2-1.2c0.2-0.2,0.2-0.5,0-0.7l-1-1c-0.2-0.2-0.2-0.5,0-0.7l1-1c0.2-0.2,0.2-0.5,0-0.7l-1-1
		c-0.2-0.2-0.2-0.5,0-0.7l1-1c0.2-0.2,0.2-0.5,0-0.7l-1-1c-0.2-0.2-0.2-0.5,0-0.7l1-1c0.2-0.2,0.2-0.5,0-0.7l-1-1
		c-0.2-0.2-0.2-0.5,0-0.7l1-1c0.2-0.2,0.2-0.5,0-0.7l-1-1c-0.2-0.2-0.2-0.5,0-0.7l1-1c0.2-0.2,0.2-0.5,0-0.7l-1-1
		c-0.2-0.2-0.2-0.5,0-0.7l1-1c0.2-0.2,0.2-0.5,0-0.7l-1-1c-0.2-0.2-0.2-0.5,0-0.7l1-1c0.2-0.2,0.2-0.5,0-0.7l-1-1
		c-0.2-0.2-0.2-0.5,0-0.7l1-1c0.2-0.2,0.2-0.5,0-0.7l-1-1c-0.2-0.2-0.2-0.5,0-0.7l1-1c0.2-0.2,0.2-0.5,0-0.7l-1-1
		c-0.2-0.2-0.2-0.5,0-0.7l1-1c0.2-0.2,0.2-0.5,0-0.7l-1-1c-0.2-0.2-0.2-0.5,0-0.7l1-1c0.2-0.2,0.2-0.5,0-0.7l-1-1
		c-0.2-0.2-0.2-0.5,0-0.7l1-1c0.2-0.2,0.2-0.5,0-0.7l-1-1c-0.2-0.2-0.2-0.5,0-0.7l1-1c0.2-0.2,0.2-0.5,0-0.7l-1-1
		c-0.2-0.2-0.2-0.5,0-0.7l1-1c0.2-0.2,0.2-0.5,0-0.7l-1-1c-0.2-0.2-0.2-0.5,0-0.7l1-1c0.2-0.2,0.2-0.5,0-0.7l-1-1
		c-0.2-0.2-0.2-0.5,0-0.7l1-1c0.2-0.2,0.2-0.5,0-0.7l-1-1c-0.2-0.2-0.2-0.5,0-0.7l1-1c0.2-0.2,0.2-0.5,0-0.7l-0.7-0.7
		c-0.2-0.2-0.3-0.4-0.3-0.4c0,0,0,0,0.1,0c0.3,0,0.5,0,0.7-0.1h0.2c1.4-0.4,2.3-1.6,2.8-3c0.5-1.3,3.7-9.4,4.1-15.3
		C1094.2,456.8,1094.2,456.3,1094.2,456.2z M1087.9,462.4c0,1.5-1.2,2.6-2.6,2.6h-12c-1.5,0-2.6-1.2-2.6-2.6V462
		c0-1.5,1.2-2.6,2.6-2.6h12c1.5,0,2.6,1.2,2.6,2.6V462.4z"/>
	<path class="st1" d="M1164.4,358.7c-0.2-1.9-1.9-3-3.8-3.4c-10-2.4-21.4,0-21.4,0c-2.1,0.4-3.8,1.7-3.8,3.8l0,15.7l0,0
		c0.2,1.5,1.4,2.7,2.8,3h0.4c0.2,0.2,0.4,0.4,0.4,0.7l3.4,61.5c0,0.3,0.3,0.5,0.6,0.5l3.8,0.1h0l7.4,0.1l0.1-0.1l-0.2,0
		c0.2-0.1,0.4-0.2,0.5-0.3l1.2-1.2c0.2-0.2,0.2-0.5,0-0.7l-1-1c-0.2-0.2-0.2-0.5,0-0.7l1-1c0.2-0.2,0.2-0.5,0-0.7l-1-1
		c-0.2-0.2-0.2-0.5,0-0.7l1-1c0.2-0.2,0.2-0.5,0-0.7l-1-1c-0.2-0.2-0.2-0.5,0-0.7l1-1c0.2-0.2,0.2-0.5,0-0.7l-1-1
		c-0.2-0.2-0.2-0.5,0-0.7l1-1c0.2-0.2,0.2-0.5,0-0.7l-1-1c-0.2-0.2-0.2-0.5,0-0.7l1-1c0.2-0.2,0.2-0.5,0-0.7l-1-1
		c-0.2-0.2-0.2-0.5,0-0.7l1-1c0.2-0.2,0.2-0.5,0-0.7l-1-1c-0.2-0.2-0.2-0.5,0-0.7l1-1c0.2-0.2,0.2-0.5,0-0.7l-1-1
		c-0.2-0.2-0.2-0.5,0-0.7l1-1c0.2-0.2,0.2-0.5,0-0.7l-1-1c-0.2-0.2-0.2-0.5,0-0.7l1-1c0.2-0.2,0.2-0.5,0-0.7l-1-1
		c-0.2-0.2-0.2-0.5,0-0.7l1-1c0.2-0.2,0.2-0.5,0-0.7l-1-1c-0.2-0.2-0.2-0.5,0-0.7l1-1c0.2-0.2,0.2-0.5,0-0.7l-1-1
		c-0.2-0.2-0.2-0.5,0-0.7l1-1c0.2-0.2,0.2-0.5,0-0.7l-1-1c-0.2-0.2-0.2-0.5,0-0.7l1-1c0.2-0.2,0.2-0.5,0-0.7l-1-1
		c-0.2-0.2-0.2-0.5,0-0.7l1-1c0.2-0.2,0.2-0.5,0-0.7l-1-1c-0.2-0.2-0.2-0.5,0-0.7l1-1c0.2-0.2,0.2-0.5,0-0.7l-1-1
		c-0.2-0.2-0.2-0.5,0-0.7l1-1c0.2-0.2,0.2-0.5,0-0.7l-1-1c-0.2-0.2-0.2-0.5,0-0.7l1-1c0.2-0.2,0.2-0.5,0-0.7l-0.7-0.7
		c-0.2-0.2-0.3-0.4-0.3-0.4c0,0,0,0,0.1,0c0.3,0,0.5,0,0.7-0.1h0.2c1.4-0.4,2.3-1.6,2.8-3c0.5-1.3,3.7-9.4,4.1-15.3
		C1164.4,359.3,1164.4,358.8,1164.4,358.7z M1158.2,364.9c0,1.5-1.2,2.6-2.6,2.6h-12c-1.5,0-2.6-1.2-2.6-2.6v-0.3
		c0-1.5,1.2-2.6,2.6-2.6h12c1.5,0,2.6,1.2,2.6,2.6V364.9z"/>
	<path class="st1" d="M1197.6,505.1c-0.2-1.9-1.9-3-3.8-3.4c-10-2.4-21.4,0-21.4,0c-2.1,0.4-3.8,1.7-3.8,3.8l0,15.7l0,0
		c0.2,1.5,1.4,2.7,2.8,3h0.4c0.2,0.2,0.4,0.4,0.4,0.7l3.4,61.5c0,0.3,0.3,0.5,0.6,0.5l3.8,0.1h0l7.4,0.1l0.1-0.1l-0.2,0
		c0.2-0.1,0.4-0.2,0.5-0.3l1.2-1.2c0.2-0.2,0.2-0.5,0-0.7l-1-1c-0.2-0.2-0.2-0.5,0-0.7l1-1c0.2-0.2,0.2-0.5,0-0.7l-1-1
		c-0.2-0.2-0.2-0.5,0-0.7l1-1c0.2-0.2,0.2-0.5,0-0.7l-1-1c-0.2-0.2-0.2-0.5,0-0.7l1-1c0.2-0.2,0.2-0.5,0-0.7l-1-1
		c-0.2-0.2-0.2-0.5,0-0.7l1-1c0.2-0.2,0.2-0.5,0-0.7l-1-1c-0.2-0.2-0.2-0.5,0-0.7l1-1c0.2-0.2,0.2-0.5,0-0.7l-1-1
		c-0.2-0.2-0.2-0.5,0-0.7l1-1c0.2-0.2,0.2-0.5,0-0.7l-1-1c-0.2-0.2-0.2-0.5,0-0.7l1-1c0.2-0.2,0.2-0.5,0-0.7l-1-1
		c-0.2-0.2-0.2-0.5,0-0.7l1-1c0.2-0.2,0.2-0.5,0-0.7l-1-1c-0.2-0.2-0.2-0.5,0-0.7l1-1c0.2-0.2,0.2-0.5,0-0.7l-1-1
		c-0.2-0.2-0.2-0.5,0-0.7l1-1c0.2-0.2,0.2-0.5,0-0.7l-1-1c-0.2-0.2-0.2-0.5,0-0.7l1-1c0.2-0.2,0.2-0.5,0-0.7l-1-1
		c-0.2-0.2-0.2-0.5,0-0.7l1-1c0.2-0.2,0.2-0.5,0-0.7l-1-1c-0.2-0.2-0.2-0.5,0-0.7l1-1c0.2-0.2,0.2-0.5,0-0.7l-1-1
		c-0.2-0.2-0.2-0.5,0-0.7l1-1c0.2-0.2,0.2-0.5,0-0.7l-1-1c-0.2-0.2-0.2-0.5,0-0.7l1-1c0.2-0.2,0.2-0.5,0-0.7l-1-1
		c-0.2-0.2-0.2-0.5,0-0.7l1-1c0.2-0.2,0.2-0.5,0-0.7l-1-1c-0.2-0.2-0.2-0.5,0-0.7l1-1c0.2-0.2,0.2-0.5,0-0.7l-0.7-0.7
		c-0.2-0.2-0.3-0.4-0.3-0.4c0,0,0,0,0.1,0c0.3,0,0.5,0,0.7-0.1h0.2c1.4-0.4,2.3-1.6,2.8-3c0.5-1.3,3.7-9.4,4.1-15.3
		C1197.6,505.7,1197.6,505.2,1197.6,505.1z M1191.3,511.3c0,1.5-1.2,2.6-2.6,2.6h-12c-1.5,0-2.6-1.2-2.6-2.6v-0.3
		c0-1.5,1.2-2.6,2.6-2.6h12c1.5,0,2.6,1.2,2.6,2.6V511.3z"/>
	<path class="st1" d="M1262,397.4c-0.2-1.9-1.9-3-3.8-3.4c-10-2.4-21.4,0-21.4,0c-2.1,0.4-3.8,1.7-3.8,3.8l0,15.7l0,0
		c0.2,1.5,1.4,2.7,2.8,3h0.4c0.2,0.2,0.4,0.4,0.4,0.7l3.4,61.5c0,0.3,0.3,0.5,0.6,0.5l3.8,0.1h0l7.4,0.1l0.1-0.1l-0.2,0
		c0.2-0.1,0.4-0.2,0.5-0.3l1.2-1.2c0.2-0.2,0.2-0.5,0-0.7l-1-1c-0.2-0.2-0.2-0.5,0-0.7l1-1c0.2-0.2,0.2-0.5,0-0.7l-1-1
		c-0.2-0.2-0.2-0.5,0-0.7l1-1c0.2-0.2,0.2-0.5,0-0.7l-1-1c-0.2-0.2-0.2-0.5,0-0.7l1-1c0.2-0.2,0.2-0.5,0-0.7l-1-1
		c-0.2-0.2-0.2-0.5,0-0.7l1-1c0.2-0.2,0.2-0.5,0-0.7l-1-1c-0.2-0.2-0.2-0.5,0-0.7l1-1c0.2-0.2,0.2-0.5,0-0.7l-1-1
		c-0.2-0.2-0.2-0.5,0-0.7l1-1c0.2-0.2,0.2-0.5,0-0.7l-1-1c-0.2-0.2-0.2-0.5,0-0.7l1-1c0.2-0.2,0.2-0.5,0-0.7l-1-1
		c-0.2-0.2-0.2-0.5,0-0.7l1-1c0.2-0.2,0.2-0.5,0-0.7l-1-1c-0.2-0.2-0.2-0.5,0-0.7l1-1c0.2-0.2,0.2-0.5,0-0.7l-1-1
		c-0.2-0.2-0.2-0.5,0-0.7l1-1c0.2-0.2,0.2-0.5,0-0.7l-1-1c-0.2-0.2-0.2-0.5,0-0.7l1-1c0.2-0.2,0.2-0.5,0-0.7l-1-1
		c-0.2-0.2-0.2-0.5,0-0.7l1-1c0.2-0.2,0.2-0.5,0-0.7l-1-1c-0.2-0.2-0.2-0.5,0-0.7l1-1c0.2-0.2,0.2-0.5,0-0.7l-1-1
		c-0.2-0.2-0.2-0.5,0-0.7l1-1c0.2-0.2,0.2-0.5,0-0.7l-1-1c-0.2-0.2-0.2-0.5,0-0.7l1-1c0.2-0.2,0.2-0.5,0-0.7l-1-1
		c-0.2-0.2-0.2-0.5,0-0.7l1-1c0.2-0.2,0.2-0.5,0-0.7l-1-1c-0.2-0.2-0.2-0.5,0-0.7l1-1c0.2-0.2,0.2-0.5,0-0.7l-0.7-0.7
		c-0.2-0.2-0.3-0.4-0.3-0.4c0,0,0,0,0.1,0c0.3,0,0.5,0,0.7-0.1h0.2c1.4-0.4,2.3-1.6,2.8-3c0.5-1.3,3.7-9.4,4.1-15.3
		C1262,398,1262,397.5,1262,397.4z M1255.8,403.6c0,1.5-1.2,2.6-2.6,2.6h-12c-1.5,0-2.6-1.2-2.6-2.6v-0.3c0-1.5,1.2-2.6,2.6-2.6h12
		c1.5,0,2.6,1.2,2.6,2.6V403.6z"/>
	<g>
		<path class="st1" d="M1043.7,209c0.1-1.6,1.5-3,3.2-3.1l8-0.2c1.6,0,4.3,0.3,5.9,0.7c0,0,5.9,1.5,7.7,8.1c1.8,6.6,1.8,6.9,1.8,6.9
			c0.2,1.6-0.1,3-0.7,3c-0.6,0-1.3-1.3-1.6-2.9c0,0-0.9-4.7-6.8-4.5c-5.8,0.1-5.3,1.5-5.3,1.5c0.6,1.5,0.2,2.8-1,2.8
			c-1.2,0-2.1,1.4-2,3l1.4,52.6c0,1.6,0.4,4.3,0.9,5.9c0,0,0.4,1.6-5.4,1.8s-5.8-1.1-5.8-1.1c0-1.6,0.1-4.3,0.1-6l1.5-53.2
			c0-1.6-0.4-3-1.1-3s-0.9-1.3-0.5-2.9c0,0,0.2-1.1-2.7-1.1s-2.8,1.5-2.8,1.5c0.2,1.6-1,3-2.6,3.1c-1.6,0-3-1.3-3-2.9l-0.2-10.4
			c0-1.6,1.3-3,2.9-3.1l0.3,0c1.6,0,2.9,1.3,2.9,2.9c0,0-0.1,1.6,2.4,1.5C1043.6,209.9,1043.7,209,1043.7,209z"/>
	</g>
	<g>
		<path class="st1" d="M1113.9,111.6c0.1-1.6,1.5-3,3.2-3.1l8-0.2c1.6,0,4.3,0.3,5.9,0.7c0,0,5.9,1.5,7.7,8.1
			c1.8,6.6,1.8,6.9,1.8,6.9c0.2,1.6-0.1,3-0.7,3c-0.6,0-1.3-1.3-1.6-2.9c0,0-0.9-4.7-6.8-4.5c-5.8,0.1-5.3,1.5-5.3,1.5
			c0.6,1.5,0.2,2.8-1,2.8c-1.2,0-2.1,1.4-2,3l1.4,52.6c0,1.6,0.4,4.3,0.9,5.9c0,0,0.4,1.6-5.4,1.8s-5.8-1.1-5.8-1.1
			c0-1.6,0.1-4.3,0.1-6l1.5-53.2c0-1.6-0.4-3-1.1-3c-0.6,0-0.9-1.3-0.5-2.9c0,0,0.2-1.1-2.7-1.1s-2.8,1.5-2.8,1.5
			c0.2,1.6-1,3-2.6,3.1c-1.6,0-3-1.3-3-2.9l-0.2-10.4c0-1.6,1.3-3,2.9-3.1l0.3,0c1.6,0,2.9,1.3,2.9,2.9c0,0-0.1,1.6,2.4,1.5
			C1113.9,112.5,1113.9,111.6,1113.9,111.6z"/>
	</g>
	<g>
		<path class="st1" d="M1147.1,257.9c0.1-1.6,1.5-3,3.2-3.1l8-0.2c1.6,0,4.3,0.3,5.9,0.7c0,0,5.9,1.5,7.7,8.1
			c1.8,6.6,1.8,6.9,1.8,6.9c0.2,1.6-0.1,3-0.7,3s-1.3-1.3-1.6-2.9c0,0-0.9-4.7-6.8-4.5s-5.3,1.5-5.3,1.5c0.6,1.5,0.2,2.8-1,2.8
			s-2.1,1.4-2,3l1.4,52.6c0,1.6,0.4,4.3,0.9,5.9c0,0,0.4,1.6-5.4,1.8c-5.8,0.1-5.8-1.1-5.8-1.1c0-1.6,0.1-4.3,0.1-6l1.5-53.2
			c0-1.6-0.4-3-1.1-3c-0.6,0-0.9-1.3-0.5-2.9c0,0,0.2-1.1-2.7-1.1c-2.9,0.1-2.8,1.5-2.8,1.5c0.2,1.6-1,3-2.6,3.1c-1.6,0-3-1.3-3-2.9
			l-0.2-10.4c0-1.6,1.3-3,2.9-3.1l0.3,0c1.6,0,2.9,1.3,2.9,2.9c0,0-0.1,1.6,2.4,1.5C1147.1,258.8,1147.1,257.9,1147.1,257.9z"/>
	</g>
	<g>
		<path class="st1" d="M1211.5,150.2c0.1-1.6,1.5-3,3.2-3.1l8-0.2c1.6,0,4.3,0.3,5.9,0.7c0,0,5.9,1.5,7.7,8.1
			c1.8,6.6,1.8,6.9,1.8,6.9c0.2,1.6-0.1,3-0.7,3s-1.3-1.3-1.6-2.9c0,0-0.9-4.7-6.8-4.5s-5.3,1.5-5.3,1.5c0.6,1.5,0.2,2.8-1,2.8
			c-1.2,0-2.1,1.4-2,3l1.4,52.6c0,1.6,0.4,4.3,0.9,5.9c0,0,0.4,1.6-5.4,1.8c-5.8,0.1-5.8-1.1-5.8-1.1c0-1.6,0.1-4.3,0.1-6l1.5-53.2
			c0-1.6-0.4-3-1.1-3c-0.6,0-0.9-1.3-0.5-2.9c0,0,0.2-1.1-2.7-1.1s-2.8,1.5-2.8,1.5c0.2,1.6-1,3-2.6,3.1c-1.6,0-3-1.3-3-2.9
			l-0.2-10.4c0-1.6,1.3-3,2.9-3.1l0.3,0c1.6,0,2.9,1.3,2.9,2.9c0,0-0.1,1.6,2.4,1.5C1211.5,151.1,1211.5,150.2,1211.5,150.2z"/>
	</g>
	<g>
		<path class="st1" d="M1244.7,296.6c0.1-1.6,1.5-3,3.2-3.1l8-0.2c1.6,0,4.3,0.3,5.9,0.7c0,0,5.9,1.5,7.7,8.1
			c1.8,6.6,1.8,6.9,1.8,6.9c0.2,1.6-0.1,3-0.7,3s-1.3-1.3-1.6-2.9c0,0-0.9-4.7-6.8-4.5s-5.3,1.5-5.3,1.5c0.6,1.5,0.2,2.8-1,2.8
			c-1.2,0-2.1,1.4-2,3l1.4,52.6c0,1.6,0.4,4.3,0.9,5.9c0,0,0.4,1.6-5.4,1.8s-5.8-1.1-5.8-1.1c0-1.6,0.1-4.3,0.1-6l1.5-53.2
			c0-1.6-0.4-3-1.1-3c-0.6,0-0.9-1.3-0.5-2.9c0,0,0.2-1.1-2.7-1.1c-2.9,0.1-2.8,1.5-2.8,1.5c0.2,1.6-1,3-2.6,3.1c-1.6,0-3-1.3-3-2.9
			l-0.2-10.4c0-1.6,1.3-3,2.9-3.1l0.3,0c1.6,0,2.9,1.3,2.9,2.9c0,0-0.1,1.6,2.4,1.5C1244.7,297.5,1244.7,296.6,1244.7,296.6z"/>
	</g>
	<g>
		<path class="st1" d="M1109.3,504.5c0.1-1.6,1.5-3,3.2-3.1l8-0.2c1.6,0,4.3,0.3,5.9,0.7c0,0,5.9,1.5,7.7,8.1s1.8,6.9,1.8,6.9
			c0.2,1.6-0.1,3-0.7,3s-1.3-1.3-1.6-2.9c0,0-0.9-4.7-6.8-4.5s-5.3,1.5-5.3,1.5c0.6,1.5,0.2,2.8-1,2.8s-2.1,1.4-2,3l1.4,52.6
			c0,1.6,0.4,4.3,0.9,5.9c0,0,0.4,1.6-5.4,1.8c-5.8,0.1-5.8-1.1-5.8-1.1c0-1.6,0.1-4.3,0.1-6l1.5-53.2c0-1.6-0.4-3-1.1-3
			c-0.6,0-0.9-1.3-0.5-2.9c0,0,0.2-1.1-2.7-1.1c-2.9,0.1-2.8,1.5-2.8,1.5c0.2,1.6-1,3-2.6,3.1c-1.6,0-3-1.3-3-2.9l-0.2-10.4
			c0-1.6,1.3-3,2.9-3.1l0.3,0c1.6,0,2.9,1.3,2.9,2.9c0,0-0.1,1.6,2.4,1.5C1109.2,505.4,1109.3,504.5,1109.3,504.5z"/>
	</g>
	<g>
		<path class="st1" d="M1179.5,407.1c0.1-1.6,1.5-3,3.2-3.1l8-0.2c1.6,0,4.3,0.3,5.9,0.7c0,0,5.9,1.5,7.7,8.1
			c1.8,6.6,1.8,6.9,1.8,6.9c0.2,1.6-0.1,3-0.7,3s-1.3-1.3-1.6-2.9c0,0-0.9-4.7-6.8-4.5s-5.3,1.5-5.3,1.5c0.6,1.5,0.2,2.8-1,2.8
			s-2.1,1.4-2,3l1.4,52.6c0,1.6,0.4,4.3,0.9,5.9c0,0,0.4,1.6-5.4,1.8c-5.8,0.1-5.8-1.1-5.8-1.1c0-1.6,0.1-4.3,0.1-6l1.5-53.2
			c0-1.6-0.4-3-1.1-3c-0.6,0-0.9-1.3-0.5-2.9c0,0,0.2-1.1-2.7-1.1c-2.9,0.1-2.8,1.5-2.8,1.5c0.2,1.6-1,3-2.6,3.1c-1.6,0-3-1.3-3-2.9
			l-0.2-10.4c0-1.6,1.3-3,2.9-3.1l0.3,0c1.6,0,2.9,1.3,2.9,2.9c0,0-0.1,1.6,2.4,1.5C1179.5,408,1179.5,407.1,1179.5,407.1z"/>
	</g>
	<g>
		<path class="st1" d="M1076.9,355.3c0.1-1.6,1.5-3,3.2-3.1l8-0.2c1.6,0,4.3,0.3,5.9,0.7c0,0,5.9,1.5,7.7,8.1
			c1.8,6.6,1.8,6.9,1.8,6.9c0.2,1.6-0.1,3-0.7,3s-1.3-1.3-1.6-2.9c0,0-0.9-4.7-6.8-4.5c-5.8,0.1-5.3,1.5-5.3,1.5
			c0.6,1.5,0.2,2.8-1,2.8c-1.2,0-2.1,1.4-2,3l1.4,52.6c0,1.6,0.4,4.3,0.9,5.9c0,0,0.4,1.6-5.4,1.8c-5.8,0.1-5.8-1.1-5.8-1.1
			c0-1.6,0.1-4.3,0.1-6l1.5-53.2c0-1.6-0.4-3-1.1-3c-0.6,0-0.9-1.3-0.5-2.9c0,0,0.2-1.1-2.7-1.1c-2.9,0.1-2.8,1.5-2.8,1.5
			c0.2,1.6-1,3-2.6,3.1s-3-1.3-3-2.9l-0.2-10.4c0-1.6,1.3-3,2.9-3.1l0.3,0c1.6,0,2.9,1.3,2.9,2.9c0,0-0.1,1.6,2.4,1.5
			C1076.8,356.2,1076.9,355.3,1076.9,355.3z"/>
	</g>
	<g>
		<path class="st1" d="M1212.7,553.4c0.1-1.6,1.5-3,3.2-3.1l8-0.2c1.6,0,4.3,0.3,5.9,0.7c0,0,5.9,1.5,7.7,8.1
			c1.8,6.6,1.8,6.9,1.8,6.9c0.2,1.6-0.1,3-0.7,3c-0.6,0-1.3-1.3-1.6-2.9c0,0-0.9-4.7-6.8-4.5c-5.8,0.1-5.3,1.5-5.3,1.5
			c0.6,1.5,0.2,2.8-1,2.8c-1.2,0-2.1,1.4-2,3l1.4,52.6c0,1.6,0.4,4.3,0.9,5.9c0,0,0.4,1.6-5.4,1.8c-5.8,0.1-5.8-1.1-5.8-1.1
			c0-1.6,0.1-4.3,0.1-6l1.5-53.2c0-1.6-0.4-3-1.1-3s-0.9-1.3-0.5-2.9c0,0,0.2-1.1-2.7-1.1c-2.9,0.1-2.8,1.5-2.8,1.5
			c0.2,1.6-1,3-2.6,3.1c-1.6,0-3-1.3-3-2.9l-0.2-10.4c0-1.6,1.3-3,2.9-3.1l0.3,0c1.6,0,2.9,1.3,2.9,2.9c0,0-0.1,1.6,2.4,1.5
			C1212.7,554.3,1212.7,553.4,1212.7,553.4z"/>
	</g>
	<path class="st1" d="M947,403.9c0-2,1.1-4.2,1.1-4.2s3.7-9.3,3.7-21.1c0-11.8-1.8-13.6-2.3-13.6s-0.5-0.7-0.3,13.2
		c0.3,13.2-1.9,17.9-7.4,22.2c-5.5-4.3-7.6-8.9-7.4-22.2c0.3-13.9,0.3-13.2-0.3-13.2c-0.5,0-2.3,1.8-2.3,13.6
		c0,11.8,3.7,21.1,3.7,21.1s1.1,2.2,1.1,4.2c0,0.4,0,1,0.1,1.5c-1.8,3-1.7,5.4-1.7,5.4c0,9.5,3.4,15.4,4.6,15.4s1.4-3.8,1.4-5.1
		c0-0.2,0-0.4-0.1-0.5c-0.3-0.8-1.2-1.3-1.2-1.3s0-4.1,0-6.2c0-1.7,0.2-1.2,2.1-1.7c1.9,0.5,2.1,0,2.1,1.7c0,2.1,0,6.2,0,6.2
		s-0.9,0.5-1.2,1.3c-0.1,0.1-0.1,0.3-0.1,0.5c0,1.3,0.3,5.1,1.4,5.1c1.1,0,4.6-5.8,4.6-15.4c0,0,0.2-2.4-1.7-5.4
		C946.9,404.8,947,404.3,947,403.9z"/>
	<g>
		<path class="st1" d="M971.9,316.3c0.1-1.6,1.5-3,3.2-3.1l8-0.2c1.6,0,4.3,0.3,5.9,0.7c0,0,5.9,1.5,7.7,8.1
			c1.8,6.6,1.8,6.9,1.8,6.9c0.2,1.6-0.1,3-0.7,3c-0.6,0-1.3-1.3-1.6-2.9c0,0-0.9-4.7-6.8-4.5c-5.8,0.1-5.3,1.5-5.3,1.5
			c0.6,1.5,0.2,2.8-1,2.8s-2.1,1.4-2,3l1.4,52.6c0,1.6,0.4,4.3,0.9,5.9c0,0,0.4,1.6-5.4,1.8c-5.8,0.1-5.8-1.1-5.8-1.1
			c0-1.6,0.1-4.3,0.1-6l1.5-53.2c0-1.6-0.4-3-1.1-3c-0.6,0-0.9-1.3-0.5-2.9c0,0,0.2-1.1-2.7-1.1c-2.9,0.1-2.8,1.5-2.8,1.5
			c0.2,1.6-1,3-2.6,3.1c-1.6,0-3-1.3-3-2.9l-0.2-10.4c0-1.6,1.3-3,2.9-3.1l0.3,0c1.6,0,2.9,1.3,2.9,2.9c0,0-0.1,1.6,2.4,1.5
			C971.9,317.2,971.9,316.3,971.9,316.3z"/>
	</g>
	<path class="st1" d="M983.9,556.7c0-2,1.1-4.2,1.1-4.2s3.7-9.3,3.7-21.1c0-11.8-1.8-13.6-2.3-13.6s-0.5-0.7-0.3,13.2
		c0.3,13.2-1.9,17.9-7.4,22.2c-5.5-4.3-7.6-8.9-7.4-22.2c0.3-13.9,0.3-13.2-0.3-13.2s-2.3,1.8-2.3,13.6c0,11.8,3.7,21.1,3.7,21.1
		s1.1,2.2,1.1,4.2c0,0.4,0,1,0.1,1.5c-1.8,3-1.7,5.4-1.7,5.4c0,9.5,3.4,15.4,4.6,15.4c1.1,0,1.4-3.8,1.4-5.1c0-0.2,0-0.4-0.1-0.5
		c-0.3-0.8-1.2-1.3-1.2-1.3s0-4.1,0-6.2c0-1.7,0.2-1.2,2.1-1.7c1.9,0.5,2.1,0,2.1,1.7c0,2.1,0,6.2,0,6.2s-0.9,0.5-1.2,1.3
		c-0.1,0.1-0.1,0.3-0.1,0.5c0,1.3,0.3,5.1,1.4,5.1c1.1,0,4.6-5.8,4.6-15.4c0,0,0.2-2.4-1.7-5.4C983.8,557.7,983.9,557.2,983.9,556.7
		z"/>
	<path class="st1" d="M993.7,420.8c-0.2-1.9-1.9-3-3.8-3.4c-10-2.4-21.4,0-21.4,0c-2.1,0.4-3.8,1.7-3.8,3.8l0,15.7l0,0
		c0.2,1.5,1.4,2.7,2.8,3h0.4c0.2,0.2,0.4,0.4,0.4,0.7l3.4,61.5c0,0.3,0.3,0.5,0.6,0.5l3.8,0.1h0l7.4,0.1l0.1-0.1l-0.2,0
		c0.2-0.1,0.4-0.2,0.5-0.3l1.2-1.2c0.2-0.2,0.2-0.5,0-0.7l-1-1c-0.2-0.2-0.2-0.5,0-0.7l1-1c0.2-0.2,0.2-0.5,0-0.7l-1-1
		c-0.2-0.2-0.2-0.5,0-0.7l1-1c0.2-0.2,0.2-0.5,0-0.7l-1-1c-0.2-0.2-0.2-0.5,0-0.7l1-1c0.2-0.2,0.2-0.5,0-0.7l-1-1
		c-0.2-0.2-0.2-0.5,0-0.7l1-1c0.2-0.2,0.2-0.5,0-0.7l-1-1c-0.2-0.2-0.2-0.5,0-0.7l1-1c0.2-0.2,0.2-0.5,0-0.7l-1-1
		c-0.2-0.2-0.2-0.5,0-0.7l1-1c0.2-0.2,0.2-0.5,0-0.7l-1-1c-0.2-0.2-0.2-0.5,0-0.7l1-1c0.2-0.2,0.2-0.5,0-0.7l-1-1
		c-0.2-0.2-0.2-0.5,0-0.7l1-1c0.2-0.2,0.2-0.5,0-0.7l-1-1c-0.2-0.2-0.2-0.5,0-0.7l1-1c0.2-0.2,0.2-0.5,0-0.7l-1-1
		c-0.2-0.2-0.2-0.5,0-0.7l1-1c0.2-0.2,0.2-0.5,0-0.7l-1-1c-0.2-0.2-0.2-0.5,0-0.7l1-1c0.2-0.2,0.2-0.5,0-0.7l-1-1
		c-0.2-0.2-0.2-0.5,0-0.7l1-1c0.2-0.2,0.2-0.5,0-0.7l-1-1c-0.2-0.2-0.2-0.5,0-0.7l1-1c0.2-0.2,0.2-0.5,0-0.7l-1-1
		c-0.2-0.2-0.2-0.5,0-0.7l1-1c0.2-0.2,0.2-0.5,0-0.7l-1-1c-0.2-0.2-0.2-0.5,0-0.7l1-1c0.2-0.2,0.2-0.5,0-0.7l-1-1
		c-0.2-0.2-0.2-0.5,0-0.7l1-1c0.2-0.2,0.2-0.5,0-0.7l-1-1c-0.2-0.2-0.2-0.5,0-0.7l1-1c0.2-0.2,0.2-0.5,0-0.7l-0.7-0.7
		c-0.2-0.2-0.3-0.4-0.3-0.4c0,0,0,0,0.1,0c0.3,0,0.5,0,0.7-0.1h0.2c1.4-0.4,2.3-1.6,2.8-3c0.5-1.3,3.7-9.4,4.1-15.3
		C993.7,421.4,993.7,421,993.7,420.8z M987.5,427c0,1.5-1.2,2.6-2.6,2.6h-12c-1.5,0-2.6-1.2-2.6-2.6v-0.3c0-1.5,1.2-2.6,2.6-2.6h12
		c1.5,0,2.6,1.2,2.6,2.6V427z"/>
	<g>
		<path class="st1" d="M1008.8,469.2c0.1-1.6,1.5-3,3.2-3.1l8-0.2c1.6,0,4.3,0.3,5.9,0.7c0,0,5.9,1.5,7.7,8.1
			c1.8,6.6,1.8,6.9,1.8,6.9c0.2,1.6-0.1,3-0.7,3c-0.6,0-1.3-1.3-1.6-2.9c0,0-0.9-4.7-6.8-4.5c-5.8,0.1-5.3,1.5-5.3,1.5
			c0.6,1.5,0.2,2.8-1,2.8s-2.1,1.4-2,3l1.4,52.6c0,1.6,0.4,4.3,0.9,5.9c0,0,0.4,1.6-5.4,1.8c-5.8,0.1-5.8-1.1-5.8-1.1
			c0-1.6,0.1-4.3,0.1-6l1.5-53.2c0-1.6-0.4-3-1.1-3c-0.6,0-0.9-1.3-0.5-2.9c0,0,0.2-1.1-2.7-1.1c-2.9,0.1-2.8,1.5-2.8,1.5
			c0.2,1.6-1,3-2.6,3.1s-3-1.3-3-2.9l-0.2-10.4c0-1.6,1.3-3,2.9-3.1l0.3,0c1.6,0,2.9,1.3,2.9,2.9c0,0-0.1,1.6,2.4,1.5
			C1008.8,470.1,1008.8,469.2,1008.8,469.2z"/>
	</g>
	<path class="st1" d="M1028.8,568.2c-0.2-1.9-1.9-3-3.8-3.4c-10-2.4-21.4,0-21.4,0c-2.1,0.4-3.8,1.7-3.8,3.8l0,15.7l0,0
		c0.2,1.5,1.4,2.7,2.8,3h0.4c0.2,0.2,0.4,0.4,0.4,0.7l3.4,61.5c0,0.3,0.3,0.5,0.6,0.5l3.8,0.1h0l7.4,0.1l0.1-0.1l-0.2,0
		c0.2-0.1,0.4-0.2,0.5-0.3l1.2-1.2c0.2-0.2,0.2-0.5,0-0.7l-1-1c-0.2-0.2-0.2-0.5,0-0.7l1-1c0.2-0.2,0.2-0.5,0-0.7l-1-1
		c-0.2-0.2-0.2-0.5,0-0.7l1-1c0.2-0.2,0.2-0.5,0-0.7l-1-1c-0.2-0.2-0.2-0.5,0-0.7l1-1c0.2-0.2,0.2-0.5,0-0.7l-1-1
		c-0.2-0.2-0.2-0.5,0-0.7l1-1c0.2-0.2,0.2-0.5,0-0.7l-1-1c-0.2-0.2-0.2-0.5,0-0.7l1-1c0.2-0.2,0.2-0.5,0-0.7l-1-1
		c-0.2-0.2-0.2-0.5,0-0.7l1-1c0.2-0.2,0.2-0.5,0-0.7l-1-1c-0.2-0.2-0.2-0.5,0-0.7l1-1c0.2-0.2,0.2-0.5,0-0.7l-1-1
		c-0.2-0.2-0.2-0.5,0-0.7l1-1c0.2-0.2,0.2-0.5,0-0.7l-1-1c-0.2-0.2-0.2-0.5,0-0.7l1-1c0.2-0.2,0.2-0.5,0-0.7l-1-1
		c-0.2-0.2-0.2-0.5,0-0.7l1-1c0.2-0.2,0.2-0.5,0-0.7l-1-1c-0.2-0.2-0.2-0.5,0-0.7l1-1c0.2-0.2,0.2-0.5,0-0.7l-1-1
		c-0.2-0.2-0.2-0.5,0-0.7l1-1c0.2-0.2,0.2-0.5,0-0.7l-1-1c-0.2-0.2-0.2-0.5,0-0.7l1-1c0.2-0.2,0.2-0.5,0-0.7l-1-1
		c-0.2-0.2-0.2-0.5,0-0.7l1-1c0.2-0.2,0.2-0.5,0-0.7l-1-1c-0.2-0.2-0.2-0.5,0-0.7l1-1c0.2-0.2,0.2-0.5,0-0.7l-1-1
		c-0.2-0.2-0.2-0.5,0-0.7l1-1c0.2-0.2,0.2-0.5,0-0.7l-1-1c-0.2-0.2-0.2-0.5,0-0.7l1-1c0.2-0.2,0.2-0.5,0-0.7l-0.7-0.7
		c-0.2-0.2-0.3-0.4-0.3-0.4c0,0,0,0,0.1,0c0.3,0,0.5,0,0.7-0.1h0.2c1.4-0.4,2.3-1.6,2.8-3c0.5-1.3,3.7-9.4,4.1-15.3
		C1028.8,568.8,1028.8,568.4,1028.8,568.2z M1022.5,574.4c0,1.5-1.2,2.6-2.6,2.6h-12c-1.5,0-2.6-1.2-2.6-2.6v-0.3
		c0-1.5,1.2-2.6,2.6-2.6h12c1.5,0,2.6,1.2,2.6,2.6V574.4z"/>
</g>
<g class="st0">
	<path class="st1" d="M21.9,270.1c0-2-1.1-4.2-1.1-4.2s-3.7-9.3-3.7-21.1c0-11.8,1.8-13.6,2.3-13.6s0.5-0.7,0.3,13.2
		c-0.3,13.2,1.9,17.9,7.4,22.2c5.5-4.3,7.6-8.9,7.4-22.2c-0.3-13.9-0.3-13.2,0.3-13.2s2.3,1.8,2.3,13.6c0,11.8-3.7,21.1-3.7,21.1
		s-1.1,2.2-1.1,4.2c0,0.4,0,1-0.1,1.5c1.8,3,1.7,5.4,1.7,5.4c0,9.5-3.4,15.4-4.6,15.4s-1.4-3.8-1.4-5.1c0-0.2,0-0.4,0.1-0.5
		c0.3-0.8,1.2-1.3,1.2-1.3s0-4.1,0-6.2c0-1.7-0.2-1.2-2.1-1.7c-1.9,0.5-2.1,0-2.1,1.7c0,2.1,0,6.2,0,6.2s0.9,0.5,1.2,1.3
		c0.1,0.1,0.1,0.3,0.1,0.5c0,1.3-0.3,5.1-1.4,5.1c-1.1,0-4.6-5.8-4.6-15.4c0,0-0.2-2.4,1.7-5.4C22,271.1,21.9,270.5,21.9,270.1z"/>
	<path class="st1" d="M-11.3,416.4c0-2-1.1-4.2-1.1-4.2s-3.7-9.3-3.7-21.1c0-11.8,1.8-13.6,2.3-13.6s0.5-0.7,0.3,13.2
		c-0.3,13.2,1.9,17.9,7.4,22.2c5.5-4.3,7.6-8.9,7.4-22.2C1,376.8,1,377.5,1.5,377.5s2.3,1.8,2.3,13.6c0,11.8-3.7,21.1-3.7,21.1
		s-1.1,2.2-1.1,4.2c0,0.4,0,1-0.1,1.5c1.8,3,1.7,5.4,1.7,5.4c0,9.5-3.4,15.4-4.6,15.4s-1.4-3.8-1.4-5.1c0-0.2,0-0.4,0.1-0.5
		c0.3-0.8,1.2-1.3,1.2-1.3s0-4.1,0-6.2c0-1.7-0.2-1.2-2.1-1.7c-1.9,0.5-2.1,0-2.1,1.7c0,2.1,0,6.2,0,6.2s0.9,0.5,1.2,1.3
		c0.1,0.1,0.1,0.3,0.1,0.5c0,1.3-0.3,5.1-1.4,5.1c-1.1,0-4.6-5.8-4.6-15.4c0,0-0.2-2.4,1.7-5.4C-11.2,417.4-11.3,416.8-11.3,416.4z"
		/>
	<path class="st1" d="M58,222.3l-1.6-9.2l-3.4-5.6l0.4-27c0,0,1.8-2.3,6-2.5v0c0.1,0,0.2,0,0.3,0c0.1,0,0.2,0,0.3,0v0
		c4.2,0.2,6,2.5,6,2.5l0.4,27l-3.4,5.6l-1.6,9.2c0,0,0.4,22.9,0.4,25.4c0,2.5,1.8,3.4,1.8,5.1c0,1.8-1.8,6-1.8,6H60h-0.5h-1.8
		c0,0-1.8-4.2-1.8-6c0-1.8,1.8-2.6,1.8-5.1C57.7,245.3,58,222.3,58,222.3z"/>
	<path class="st1" d="M24.8,368.7l-1.6-9.2l-3.4-5.6l0.4-27c0,0,1.8-2.3,6-2.5v0c0.1,0,0.2,0,0.3,0c0.1,0,0.2,0,0.3,0v0
		c4.2,0.2,6,2.5,6,2.5l0.4,27l-3.4,5.6l-1.6,9.2c0,0,0.4,22.9,0.4,25.4c0,2.5,1.8,3.4,1.8,5.1s-1.8,6-1.8,6h-1.8h-0.5h-1.8
		c0,0-1.8-4.2-1.8-6s1.8-2.6,1.8-5.1C24.5,391.6,24.8,368.7,24.8,368.7z"/>
	<path class="st1" d="M-12.2,124.9l-1.6-9.2l-3.4-5.6l0.4-27c0,0,1.8-2.3,6-2.5v0c0.1,0,0.2,0,0.3,0c0.1,0,0.2,0,0.3,0v0
		c4.2,0.2,6,2.5,6,2.5l0.4,27l-3.4,5.6l-1.6,9.2c0,0,0.4,22.9,0.4,25.4c0,2.5,1.8,3.4,1.8,5.1s-1.8,6-1.8,6h-1.8h-0.5h-1.8
		c0,0-1.8-4.2-1.8-6s1.8-2.6,1.8-5.1C-12.6,147.9-12.2,124.9-12.2,124.9z"/>
	<path class="st1" d="M-7.6,517.8l-1.6-9.2l-3.4-5.6l0.4-27c0,0,1.8-2.3,6-2.5v0c0.1,0,0.2,0,0.3,0c0.1,0,0.2,0,0.3,0v0
		c4.2,0.2,6,2.5,6,2.5l0.4,27l-3.4,5.6l-1.6,9.2c0,0,0.4,22.9,0.4,25.4c0,2.5,1.8,3.4,1.8,5.1c0,1.8-1.8,6-1.8,6h-1.8h-0.5h-1.8
		c0,0-1.8-4.2-1.8-6c0-1.8,1.8-2.6,1.8-5.1C-7.9,540.8-7.6,517.8-7.6,517.8z"/>
	<path class="st1" d="M12.1,134.9c0.4,5.9,3.6,14,4.1,15.3c0.5,1.4,1.4,2.7,2.8,3h0.2c0.2,0.1,0.5,0.1,0.7,0.1c0.1,0,0.1,0,0.1,0
		c0.1,0-0.1,0.2-0.3,0.4l-0.7,0.7c-0.2,0.2-0.2,0.5,0,0.7l1,1c0.2,0.2,0.2,0.5,0,0.7l-1,1c-0.2,0.2-0.2,0.5,0,0.7l1,1
		c0.2,0.2,0.2,0.5,0,0.7l-1,1c-0.2,0.2-0.2,0.5,0,0.7l1,1c0.2,0.2,0.2,0.5,0,0.7l-1,1c-0.2,0.2-0.2,0.5,0,0.7l1,1
		c0.2,0.2,0.2,0.5,0,0.7l-1,1c-0.2,0.2-0.2,0.5,0,0.7l1,1c0.2,0.2,0.2,0.5,0,0.7l-1,1c-0.2,0.2-0.2,0.5,0,0.7l1,1
		c0.2,0.2,0.2,0.5,0,0.7l-1,1c-0.2,0.2-0.2,0.5,0,0.7l1,1c0.2,0.2,0.2,0.5,0,0.7l-1,1c-0.2,0.2-0.2,0.5,0,0.7l1,1
		c0.2,0.2,0.2,0.5,0,0.7l-1,1c-0.2,0.2-0.2,0.5,0,0.7l1,1c0.2,0.2,0.2,0.5,0,0.7l-1,1c-0.2,0.2-0.2,0.5,0,0.7l1,1
		c0.2,0.2,0.2,0.5,0,0.7l-1,1c-0.2,0.2-0.2,0.5,0,0.7l1,1c0.2,0.2,0.2,0.5,0,0.7l-1,1c-0.2,0.2-0.2,0.5,0,0.7l1,1
		c0.2,0.2,0.2,0.5,0,0.7l-1,1c-0.2,0.2-0.2,0.5,0,0.7l1,1c0.2,0.2,0.2,0.5,0,0.7l-1,1c-0.2,0.2-0.2,0.5,0,0.7l1,1
		c0.2,0.2,0.2,0.5,0,0.7l-1,1c-0.2,0.2-0.2,0.5,0,0.7l1,1c0.2,0.2,0.2,0.5,0,0.7l-1,1c-0.2,0.2-0.2,0.5,0,0.7l1,1
		c0.2,0.2,0.2,0.5,0,0.7l-1,1c-0.2,0.2-0.2,0.5,0,0.7l1,1c0.2,0.2,0.2,0.5,0,0.7l-1,1c-0.2,0.2-0.2,0.5,0,0.7l1.2,1.2
		c0.1,0.1,0.3,0.2,0.5,0.3l-0.2,0l0.1,0.1l7.4-0.1h0l3.8-0.1c0.3,0,0.5-0.2,0.6-0.5l3.4-61.5c0-0.2,0.2-0.5,0.4-0.7h0.4
		c1.5-0.4,2.6-1.6,2.8-3l0,0l0-15.7c0-2.1-1.8-3.4-3.8-3.8c0,0-11.4-2.4-21.4,0c-1.9,0.4-3.6,1.5-3.8,3.4
		C12.1,134.3,12.1,134.8,12.1,134.9z M18.3,140c0-1.5,1.2-2.6,2.6-2.6h12c1.5,0,2.6,1.2,2.6,2.6v0.3c0,1.5-1.2,2.6-2.6,2.6H21
		c-1.5,0-2.6-1.2-2.6-2.6V140z"/>
	<path class="st1" d="M-21.1,281.2c0.4,5.9,3.6,14,4.1,15.3c0.5,1.4,1.4,2.7,2.8,3h0.2c0.2,0.1,0.5,0.1,0.7,0.1c0.1,0,0.1,0,0.1,0
		c0.1,0-0.1,0.2-0.3,0.4l-0.7,0.7c-0.2,0.2-0.2,0.5,0,0.7l1,1c0.2,0.2,0.2,0.5,0,0.7l-1,1c-0.2,0.2-0.2,0.5,0,0.7l1,1
		c0.2,0.2,0.2,0.5,0,0.7l-1,1c-0.2,0.2-0.2,0.5,0,0.7l1,1c0.2,0.2,0.2,0.5,0,0.7l-1,1c-0.2,0.2-0.2,0.5,0,0.7l1,1
		c0.2,0.2,0.2,0.5,0,0.7l-1,1c-0.2,0.2-0.2,0.5,0,0.7l1,1c0.2,0.2,0.2,0.5,0,0.7l-1,1c-0.2,0.2-0.2,0.5,0,0.7l1,1
		c0.2,0.2,0.2,0.5,0,0.7l-1,1c-0.2,0.2-0.2,0.5,0,0.7l1,1c0.2,0.2,0.2,0.5,0,0.7l-1,1c-0.2,0.2-0.2,0.5,0,0.7l1,1
		c0.2,0.2,0.2,0.5,0,0.7l-1,1c-0.2,0.2-0.2,0.5,0,0.7l1,1c0.2,0.2,0.2,0.5,0,0.7l-1,1c-0.2,0.2-0.2,0.5,0,0.7l1,1
		c0.2,0.2,0.2,0.5,0,0.7l-1,1c-0.2,0.2-0.2,0.5,0,0.7l1,1c0.2,0.2,0.2,0.5,0,0.7l-1,1c-0.2,0.2-0.2,0.5,0,0.7l1,1
		c0.2,0.2,0.2,0.5,0,0.7l-1,1c-0.2,0.2-0.2,0.5,0,0.7l1,1c0.2,0.2,0.2,0.5,0,0.7l-1,1c-0.2,0.2-0.2,0.5,0,0.7l1,1
		c0.2,0.2,0.2,0.5,0,0.7l-1,1c-0.2,0.2-0.2,0.5,0,0.7l1,1c0.2,0.2,0.2,0.5,0,0.7l-1,1c-0.2,0.2-0.2,0.5,0,0.7l1,1
		c0.2,0.2,0.2,0.5,0,0.7l-1,1c-0.2,0.2-0.2,0.5,0,0.7l1,1c0.2,0.2,0.2,0.5,0,0.7l-1,1c-0.2,0.2-0.2,0.5,0,0.7l1.2,1.2
		c0.1,0.1,0.3,0.2,0.5,0.3l-0.2,0l0.1,0.1l7.4-0.1h0l3.8-0.1c0.3,0,0.5-0.2,0.6-0.5l3.4-61.5c0-0.2,0.2-0.5,0.4-0.7H5
		c1.5-0.4,2.6-1.6,2.8-3l0,0l0-15.7c0-2.1-1.8-3.4-3.8-3.8c0,0-11.4-2.4-21.4,0c-1.9,0.4-3.6,1.5-3.8,3.4
		C-21.1,280.6-21.1,281.1-21.1,281.2z M-14.9,286.4c0-1.5,1.2-2.6,2.6-2.6h12c1.5,0,2.6,1.2,2.6,2.6v0.3c0,1.5-1.2,2.6-2.6,2.6h-12
		c-1.5,0-2.6-1.2-2.6-2.6V286.4z"/>
	<g>
		<path class="st1" d="M-3,182.5c-0.1-1.6-1.5-3-3.2-3.1l-8-0.2c-1.6,0-4.3,0.3-5.9,0.7c0,0-5.9,1.5-7.7,8.1
			c-1.8,6.6-1.8,6.9-1.8,6.9c-0.2,1.6,0.1,3,0.7,3c0.6,0,1.3-1.3,1.6-2.9c0,0,0.9-4.7,6.8-4.5c5.8,0.1,5.3,1.5,5.3,1.5
			c-0.6,1.5-0.2,2.8,1,2.8s2.1,1.4,2,3l-1.4,52.6c0,1.6-0.4,4.3-0.9,5.9c0,0-0.4,1.6,5.4,1.8s5.8-1.1,5.8-1.1c0-1.6-0.1-4.3-0.1-6
			L-5,197.9c0-1.6,0.4-3,1.1-3s0.9-1.3,0.5-2.9c0,0-0.2-1.1,2.7-1.1s2.8,1.5,2.8,1.5c-0.2,1.6,1,3,2.6,3.1c1.6,0,3-1.3,3-2.9
			l0.2-10.4c0-1.6-1.3-3-2.9-3.1l-0.3,0c-1.6,0-2.9,1.3-2.9,2.9c0,0,0.1,1.6-2.4,1.5S-3,182.5-3,182.5z"/>
	</g>
	<path class="st1" d="M93.7,377.4c0-2-1.1-4.2-1.1-4.2s-3.7-9.3-3.7-21.1c0-11.8,1.8-13.6,2.3-13.6c0.5,0,0.5-0.7,0.3,13.2
		c-0.3,13.2,1.9,17.9,7.4,22.2c5.5-4.3,7.6-8.9,7.4-22.2c-0.3-13.9-0.3-13.2,0.3-13.2c0.5,0,2.3,1.8,2.3,13.6
		c0,11.8-3.7,21.1-3.7,21.1s-1.1,2.2-1.1,4.2c0,0.4,0,1-0.1,1.5c1.8,3,1.7,5.4,1.7,5.4c0,9.5-3.4,15.4-4.6,15.4
		c-1.1,0-1.4-3.8-1.4-5.1c0-0.2,0-0.4,0.1-0.5c0.3-0.8,1.2-1.3,1.2-1.3s0-4.1,0-6.2c0-1.7-0.2-1.2-2.1-1.7c-1.9,0.5-2.1,0-2.1,1.7
		c0,2.1,0,6.2,0,6.2s0.9,0.5,1.2,1.3c0.1,0.1,0.1,0.3,0.1,0.5c0,1.3-0.3,5.1-1.4,5.1c-1.1,0-4.6-5.8-4.6-15.4c0,0-0.2-2.4,1.7-5.4
		C93.7,378.3,93.7,377.8,93.7,377.4z"/>
	<g>
		<path class="st1" d="M68.7,289.8c-0.1-1.6-1.5-3-3.2-3.1l-8-0.2c-1.6,0-4.3,0.3-5.9,0.7c0,0-5.9,1.5-7.7,8.1
			c-1.8,6.6-1.8,6.9-1.8,6.9c-0.2,1.6,0.1,3,0.7,3s1.3-1.3,1.6-2.9c0,0,0.9-4.7,6.8-4.5s5.3,1.5,5.3,1.5c-0.6,1.5-0.2,2.8,1,2.8
			c1.2,0,2.1,1.4,2,3l-1.4,52.6c0,1.6-0.4,4.3-0.9,5.9c0,0-0.4,1.6,5.4,1.8s5.8-1.1,5.8-1.1c0-1.6-0.1-4.3-0.1-6l-1.5-53.2
			c0-1.6,0.4-3,1.1-3c0.6,0,0.9-1.3,0.5-2.9c0,0-0.2-1.1,2.7-1.1c2.9,0.1,2.8,1.5,2.8,1.5c-0.2,1.6,1,3,2.6,3.1c1.6,0,3-1.3,3-2.9
			l0.2-10.4c0-1.6-1.3-3-2.9-3.1l-0.3,0c-1.6,0-2.9,1.3-2.9,2.9c0,0,0.1,1.6-2.4,1.5C68.8,290.7,68.7,289.8,68.7,289.8z"/>
	</g>
	<path class="st1" d="M56.8,530.2c0-2-1.1-4.2-1.1-4.2s-3.7-9.3-3.7-21.1s1.8-13.6,2.3-13.6s0.5-0.7,0.3,13.2
		c-0.3,13.2,1.9,17.9,7.4,22.2c5.5-4.3,7.6-8.9,7.4-22.2c-0.3-13.9-0.3-13.2,0.3-13.2c0.5,0,2.3,1.8,2.3,13.6S68.2,526,68.2,526
		s-1.1,2.2-1.1,4.2c0,0.4,0,1-0.1,1.5c1.8,3,1.7,5.4,1.7,5.4c0,9.5-3.4,15.4-4.6,15.4c-1.1,0-1.4-3.8-1.4-5.1c0-0.2,0-0.4,0.1-0.5
		c0.3-0.8,1.2-1.3,1.2-1.3s0-4.1,0-6.2c0-1.7-0.2-1.2-2.1-1.7c-1.9,0.5-2.1,0-2.1,1.7c0,2.1,0,6.2,0,6.2s0.9,0.5,1.2,1.3
		c0.1,0.1,0.1,0.3,0.1,0.5c0,1.3-0.3,5.1-1.4,5.1c-1.1,0-4.6-5.8-4.6-15.4c0,0-0.2-2.4,1.7-5.4C56.8,531.2,56.8,530.7,56.8,530.2z"
		/>
	<path class="st1" d="M46.9,395.1c0.4,5.9,3.6,14,4.1,15.3c0.5,1.4,1.4,2.7,2.8,3h0.2c0.2,0.1,0.5,0.1,0.7,0.1c0.1,0,0.1,0,0.1,0
		c0.1,0-0.1,0.2-0.3,0.4l-0.7,0.7c-0.2,0.2-0.2,0.5,0,0.7l1,1c0.2,0.2,0.2,0.5,0,0.7l-1,1c-0.2,0.2-0.2,0.5,0,0.7l1,1
		c0.2,0.2,0.2,0.5,0,0.7l-1,1c-0.2,0.2-0.2,0.5,0,0.7l1,1c0.2,0.2,0.2,0.5,0,0.7l-1,1c-0.2,0.2-0.2,0.5,0,0.7l1,1
		c0.2,0.2,0.2,0.5,0,0.7l-1,1c-0.2,0.2-0.2,0.5,0,0.7l1,1c0.2,0.2,0.2,0.5,0,0.7l-1,1c-0.2,0.2-0.2,0.5,0,0.7l1,1
		c0.2,0.2,0.2,0.5,0,0.7l-1,1c-0.2,0.2-0.2,0.5,0,0.7l1,1c0.2,0.2,0.2,0.5,0,0.7l-1,1c-0.2,0.2-0.2,0.5,0,0.7l1,1
		c0.2,0.2,0.2,0.5,0,0.7l-1,1c-0.2,0.2-0.2,0.5,0,0.7l1,1c0.2,0.2,0.2,0.5,0,0.7l-1,1c-0.2,0.2-0.2,0.5,0,0.7l1,1
		c0.2,0.2,0.2,0.5,0,0.7l-1,1c-0.2,0.2-0.2,0.5,0,0.7l1,1c0.2,0.2,0.2,0.5,0,0.7l-1,1c-0.2,0.2-0.2,0.5,0,0.7l1,1
		c0.2,0.2,0.2,0.5,0,0.7l-1,1c-0.2,0.2-0.2,0.5,0,0.7l1,1c0.2,0.2,0.2,0.5,0,0.7l-1,1c-0.2,0.2-0.2,0.5,0,0.7l1,1
		c0.2,0.2,0.2,0.5,0,0.7l-1,1c-0.2,0.2-0.2,0.5,0,0.7l1,1c0.2,0.2,0.2,0.5,0,0.7l-1,1c-0.2,0.2-0.2,0.5,0,0.7l1,1
		c0.2,0.2,0.2,0.5,0,0.7l-1,1c-0.2,0.2-0.2,0.5,0,0.7l1,1c0.2,0.2,0.2,0.5,0,0.7l-1,1c-0.2,0.2-0.2,0.5,0,0.7l1.2,1.2
		c0.1,0.1,0.3,0.2,0.5,0.3l-0.2,0l0.1,0.1l7.4-0.1h0l3.8-0.1c0.3,0,0.5-0.2,0.6-0.5l3.4-61.5c0-0.2,0.2-0.5,0.4-0.7h0.4
		c1.5-0.4,2.6-1.6,2.8-3l0,0l0-15.7c0-2.1-1.8-3.4-3.8-3.8c0,0-11.4-2.4-21.4,0c-1.9,0.4-3.6,1.5-3.8,3.4
		C46.9,394.5,46.9,394.9,46.9,395.1z M53.2,400.2c0-1.5,1.2-2.6,2.6-2.6h12c1.5,0,2.6,1.2,2.6,2.6v0.3c0,1.5-1.2,2.6-2.6,2.6h-12
		c-1.5,0-2.6-1.2-2.6-2.6V400.2z"/>
	<g>
		<path class="st1" d="M31.8,442.7c-0.1-1.6-1.5-3-3.2-3.1l-8-0.2c-1.6,0-4.3,0.3-5.9,0.7c0,0-5.9,1.5-7.7,8.1
			c-1.8,6.6-1.8,6.9-1.8,6.9c-0.2,1.6,0.1,3,0.7,3c0.6,0,1.3-1.3,1.6-2.9c0,0,0.9-4.7,6.8-4.5s5.3,1.5,5.3,1.5
			c-0.6,1.5-0.2,2.8,1,2.8s2.1,1.4,2,3l-1.4,52.6c0,1.6-0.4,4.3-0.9,5.9c0,0-0.4,1.6,5.4,1.8c5.8,0.1,5.8-1.1,5.8-1.1
			c0-1.6-0.1-4.3-0.1-6l-1.5-53.2c0-1.6,0.4-3,1.1-3c0.6,0,0.9-1.3,0.5-2.9c0,0-0.2-1.1,2.7-1.1c2.9,0.1,2.8,1.5,2.8,1.5
			c-0.2,1.6,1,3,2.6,3.1c1.6,0,3-1.3,3-2.9l0.2-10.4c0-1.6-1.3-3-2.9-3.1l-0.3,0c-1.6,0-2.9,1.3-2.9,2.9c0,0,0.1,1.6-2.4,1.5
			S31.8,442.7,31.8,442.7z"/>
	</g>
	<path class="st1" d="M11.9,542.5c0.4,5.9,3.6,14,4.1,15.3c0.5,1.4,1.4,2.7,2.8,3H19c0.2,0.1,0.5,0.1,0.7,0.1c0.1,0,0.1,0,0.1,0
		c0.1,0-0.1,0.2-0.3,0.4l-0.7,0.7c-0.2,0.2-0.2,0.5,0,0.7l1,1c0.2,0.2,0.2,0.5,0,0.7l-1,1c-0.2,0.2-0.2,0.5,0,0.7l1,1
		c0.2,0.2,0.2,0.5,0,0.7l-1,1c-0.2,0.2-0.2,0.5,0,0.7l1,1c0.2,0.2,0.2,0.5,0,0.7l-1,1c-0.2,0.2-0.2,0.5,0,0.7l1,1
		c0.2,0.2,0.2,0.5,0,0.7l-1,1c-0.2,0.2-0.2,0.5,0,0.7l1,1c0.2,0.2,0.2,0.5,0,0.7l-1,1c-0.2,0.2-0.2,0.5,0,0.7l1,1
		c0.2,0.2,0.2,0.5,0,0.7l-1,1c-0.2,0.2-0.2,0.5,0,0.7l1,1c0.2,0.2,0.2,0.5,0,0.7l-1,1c-0.2,0.2-0.2,0.5,0,0.7l1,1
		c0.2,0.2,0.2,0.5,0,0.7l-1,1c-0.2,0.2-0.2,0.5,0,0.7l1,1c0.2,0.2,0.2,0.5,0,0.7l-1,1c-0.2,0.2-0.2,0.5,0,0.7l1,1
		c0.2,0.2,0.2,0.5,0,0.7l-1,1c-0.2,0.2-0.2,0.5,0,0.7l1,1c0.2,0.2,0.2,0.5,0,0.7l-1,1c-0.2,0.2-0.2,0.5,0,0.7l1,1
		c0.2,0.2,0.2,0.5,0,0.7l-1,1c-0.2,0.2-0.2,0.5,0,0.7l1,1c0.2,0.2,0.2,0.5,0,0.7l-1,1c-0.2,0.2-0.2,0.5,0,0.7l1,1
		c0.2,0.2,0.2,0.5,0,0.7l-1,1c-0.2,0.2-0.2,0.5,0,0.7l1,1c0.2,0.2,0.2,0.5,0,0.7l-1,1c-0.2,0.2-0.2,0.5,0,0.7l1,1
		c0.2,0.2,0.2,0.5,0,0.7l-1,1c-0.2,0.2-0.2,0.5,0,0.7l1,1c0.2,0.2,0.2,0.5,0,0.7l-1,1c-0.2,0.2-0.2,0.5,0,0.7l1.2,1.2
		c0.1,0.1,0.3,0.2,0.5,0.3l-0.2,0l0.1,0.1l7.4-0.1h0l3.8-0.1c0.3,0,0.5-0.2,0.6-0.5l3.4-61.5c0-0.2,0.2-0.5,0.4-0.7H38
		c1.5-0.4,2.6-1.6,2.8-3l0,0l0-15.7c0-2.1-1.8-3.4-3.8-3.8c0,0-11.4-2.4-21.4,0c-1.9,0.4-3.6,1.5-3.8,3.4
		C11.9,541.9,11.9,542.3,11.9,542.5z M18.1,547.6c0-1.5,1.2-2.6,2.6-2.6h12c1.5,0,2.6,1.2,2.6,2.6v0.3c0,1.5-1.2,2.6-2.6,2.6h-12
		c-1.5,0-2.6-1.2-2.6-2.6V547.6z"/>
</g>
</svg>
